<svg width="148" height="44" viewBox="0 0 148 44" fill="none" xmlns="http://www.w3.org/2000/svg">
<g clip-path="url(#clip0_2233_1550)">
<path d="M147.499 39.5894V39.6859C147.45 41.8175 145.772 43.5 143.738 43.5H4.26741C2.20335 43.5 0.5 41.7655 0.5 39.5894V4.41635C0.5 2.24042 2.20426 0.5 4.26741 0.5H143.737C145.801 0.5 147.499 2.23938 147.499 4.41635V39.5894Z" stroke="#E1E1E1"/>
<path fill-rule="evenodd" clip-rule="evenodd" d="M32.9803 21.6572C32.9486 18.129 35.8692 16.4126 36.0027 16.3316C34.3487 13.92 31.7849 13.5905 30.884 13.5653C28.7308 13.3387 26.6421 14.8538 25.5453 14.8538C24.4265 14.8538 22.7363 13.5872 20.917 13.6244C18.5755 13.6606 16.3829 15.0169 15.1809 17.123C12.7004 21.4174 14.5504 27.7282 16.9269 31.1994C18.1157 32.8995 19.5049 34.7976 21.322 34.7309C23.1009 34.6564 23.7653 33.5957 25.9131 33.5957C28.04 33.5957 28.664 34.7309 30.5184 34.6882C32.4275 34.6564 33.6295 32.9805 34.7767 31.2651C36.1505 29.3155 36.7022 27.3966 36.7241 27.298C36.6792 27.2838 33.0164 25.8859 32.9803 21.6572Z" fill="white"/>
<path fill-rule="evenodd" clip-rule="evenodd" d="M29.4773 11.2818C30.433 10.0853 31.0876 8.45753 30.9059 6.80566C29.5211 6.86697 27.7894 7.76241 26.7932 8.93371C25.9109 9.9649 25.1227 11.6551 25.3263 13.2445C26.8819 13.3606 28.479 12.4597 29.4773 11.2818Z" fill="white"/>
<path fill-rule="evenodd" clip-rule="evenodd" d="M54.4651 28.4123L53.2336 24.6094C53.1033 24.2197 52.8592 23.3045 52.4979 21.8639H52.4552C52.3118 22.4846 52.0809 23.3987 51.7634 24.6094L50.5538 28.4123H54.4651ZM58.7234 34.4866H56.2374L54.8756 30.2075H50.1433L48.8461 34.4866H46.4258L51.1154 19.9187H54.0119L58.7234 34.4866Z" fill="white"/>
<path fill-rule="evenodd" clip-rule="evenodd" d="M68.4061 29.1907C68.4061 28.1683 68.1762 27.3254 67.7143 26.662C67.2096 25.9713 66.5331 25.6243 65.6826 25.6243C65.1068 25.6243 64.5835 25.8169 64.1161 26.1979C63.6476 26.5799 63.341 27.0802 63.1976 27.7009C63.1254 27.9888 63.0893 28.2263 63.0893 28.4124V30.1639C63.0893 30.928 63.3235 31.5727 63.7921 32.0982C64.2606 32.6247 64.8692 32.8874 65.618 32.8874C66.497 32.8874 67.1823 32.5481 67.6716 31.8716C68.1609 31.194 68.4061 30.3007 68.4061 29.1907ZM70.7837 29.1053C70.7837 30.8918 70.301 32.304 69.3355 33.3406C68.4707 34.2634 67.3979 34.7243 66.115 34.7243C64.7324 34.7243 63.7384 34.2273 63.1331 33.2323H63.0893V38.7658H60.7554V27.4403C60.7554 26.3172 60.7259 25.1645 60.6689 23.9823H62.7215L62.8517 25.6473H62.8955C63.6727 24.3928 64.855 23.7666 66.439 23.7666C67.6792 23.7666 68.7126 24.2559 69.5413 25.2357C70.37 26.2165 70.7837 27.506 70.7837 29.1053Z" fill="white"/>
<path fill-rule="evenodd" clip-rule="evenodd" d="M80.4881 29.1907C80.4881 28.1683 80.2572 27.3254 79.7963 26.662C79.2917 25.9713 78.6151 25.6243 77.7646 25.6243C77.1877 25.6243 76.6655 25.8169 76.197 26.1979C75.7296 26.5799 75.4242 27.0802 75.2797 27.7009C75.2085 27.9888 75.1713 28.2263 75.1713 28.4124V30.1639C75.1713 30.928 75.4056 31.5727 75.8719 32.0982C76.3404 32.6247 76.9501 32.8874 77.7 32.8874C78.579 32.8874 79.2632 32.5481 79.7525 31.8716C80.2429 31.194 80.4881 30.3007 80.4881 29.1907ZM82.8658 29.1053C82.8658 30.8918 82.383 32.304 81.4164 33.3406C80.5527 34.2634 79.4788 34.7243 78.197 34.7243C76.8133 34.7243 75.8193 34.2273 75.2151 33.2323H75.1713V38.7658H72.8375V27.4403C72.8375 26.3172 72.8079 25.1645 72.751 23.9823H74.8046L74.9338 25.6473H74.9775C75.7548 24.3928 76.9348 23.7666 78.521 23.7666C79.7591 23.7666 80.7946 24.2559 81.6233 25.2357C82.4509 26.2165 82.8658 27.506 82.8658 29.1053Z" fill="white"/>
<path fill-rule="evenodd" clip-rule="evenodd" d="M96.3736 30.4025C96.3736 31.6406 95.9434 32.6487 95.0797 33.4271C94.1306 34.2787 92.8093 34.7024 91.1115 34.7024C89.545 34.7024 88.2872 34.4002 87.3359 33.7949L87.8767 31.8496C88.9013 32.4692 90.0256 32.779 91.2505 32.779C92.1295 32.779 92.8137 32.5809 93.3052 32.1835C93.7956 31.7872 94.0386 31.2563 94.0386 30.5919C94.0386 30.0007 93.8383 29.5027 93.4333 29.0987C93.0315 28.6948 92.3605 28.3193 91.4245 27.9723C88.874 27.021 87.5987 25.6275 87.5987 23.7939C87.5987 22.5974 88.0464 21.6155 88.9396 20.8503C89.8307 20.0852 91.0195 19.7031 92.5061 19.7031C93.8317 19.7031 94.933 19.933 95.8109 20.3939L95.2274 22.2964C94.4064 21.8498 93.4782 21.6265 92.4393 21.6265C91.6183 21.6265 90.9768 21.8279 90.5171 22.2318C90.1285 22.592 89.9336 23.0309 89.9336 23.5509C89.9336 24.1267 90.1558 24.6029 90.6035 24.9762C90.9922 25.3232 91.6982 25.6976 92.7217 26.1015C93.9751 26.6061 94.8958 27.1962 95.488 27.8727C96.0791 28.5503 96.3736 29.3943 96.3736 30.4025Z" fill="white"/>
<path fill-rule="evenodd" clip-rule="evenodd" d="M104.091 25.7336H101.518V30.8337C101.518 32.1309 101.971 32.7789 102.88 32.7789C103.297 32.7789 103.644 32.7428 103.918 32.6716L103.981 34.4439C103.521 34.6158 102.917 34.7023 102.166 34.7023C101.244 34.7023 100.524 34.4209 100.004 33.8605C99.4875 33.2978 99.2259 32.3542 99.2259 31.0285V25.7336H97.6934V23.9821H99.2259V22.0588L101.518 21.3669V23.9821H104.091V25.7336Z" fill="white"/>
<path fill-rule="evenodd" clip-rule="evenodd" d="M113.276 29.2236C113.276 28.2559 113.068 27.425 112.649 26.731C112.16 25.8925 111.46 25.4743 110.554 25.4743C109.616 25.4743 108.903 25.8925 108.414 26.731C107.995 27.425 107.788 28.269 107.788 29.2673C107.788 30.2361 107.995 31.067 108.414 31.7599C108.919 32.5973 109.625 33.0166 110.533 33.0166C111.424 33.0166 112.124 32.5908 112.628 31.738C113.06 31.0309 113.276 30.1912 113.276 29.2236ZM115.698 29.148C115.698 30.7627 115.237 32.0883 114.315 33.125C113.349 34.1912 112.066 34.7243 110.466 34.7243C108.925 34.7243 107.698 34.2131 106.783 33.1896C105.868 32.1671 105.41 30.8765 105.41 29.321C105.41 27.6932 105.881 26.3599 106.826 25.3232C107.768 24.2855 109.04 23.7666 110.639 23.7666C112.182 23.7666 113.421 24.2778 114.358 25.3013C115.251 26.2953 115.698 27.5772 115.698 29.148Z" fill="white"/>
<path fill-rule="evenodd" clip-rule="evenodd" d="M123.283 26.0348C123.052 25.9921 122.807 25.9713 122.548 25.9713C121.727 25.9713 121.092 26.2811 120.645 26.9007C120.255 27.448 120.062 28.1398 120.062 28.9751V34.4867H117.729L117.75 27.2904C117.75 26.0786 117.72 24.9762 117.662 23.9823H119.696L119.781 25.9921H119.845C120.091 25.3013 120.481 24.7452 121.013 24.3293C121.532 23.9538 122.094 23.7666 122.7 23.7666C122.915 23.7666 123.11 23.7819 123.283 23.8093V26.0348Z" fill="white"/>
<path fill-rule="evenodd" clip-rule="evenodd" d="M131.496 28.1321C131.511 27.4403 131.359 26.8437 131.043 26.3379C130.639 25.6899 130.018 25.3658 129.183 25.3658C128.42 25.3658 127.799 25.6822 127.325 26.3171C126.935 26.8218 126.704 27.4271 126.634 28.1321H131.496ZM133.721 28.7374C133.721 29.1556 133.694 29.5081 133.636 29.796H126.634C126.662 30.8337 127 31.6274 127.649 32.1747C128.239 32.664 129.003 32.9092 129.939 32.9092C130.976 32.9092 131.922 32.7429 132.772 32.4112L133.138 34.0324C132.144 34.4648 130.97 34.6815 129.616 34.6815C127.987 34.6815 126.709 34.2021 125.778 33.2431C124.851 32.2853 124.385 30.999 124.385 29.3855C124.385 27.8004 124.816 26.4813 125.683 25.4304C126.589 24.3062 127.814 23.7446 129.356 23.7446C130.87 23.7446 132.016 24.3062 132.794 25.4304C133.411 26.3237 133.721 27.4271 133.721 28.7374Z" fill="white"/>
<path fill-rule="evenodd" clip-rule="evenodd" d="M52.4837 10.9885C52.4837 10.1532 52.2626 9.51285 51.8192 9.06622C51.377 8.62069 50.7311 8.39737 49.8817 8.39737C49.5204 8.39737 49.2117 8.42255 48.9578 8.47181V13.8237C49.099 13.8456 49.3573 13.8554 49.7328 13.8554C50.6107 13.8554 51.2883 13.6113 51.7667 13.1231C52.244 12.6349 52.4837 11.9233 52.4837 10.9885ZM53.6933 10.9567C53.6933 12.2452 53.308 13.215 52.5363 13.8664C51.8203 14.4673 50.8056 14.7684 49.4887 14.7684C48.8374 14.7684 48.278 14.7399 47.8105 14.6841V7.64314C48.4203 7.54462 49.0771 7.49536 49.7864 7.49536C51.0387 7.49536 51.9845 7.76794 52.6216 8.31308C53.3354 8.92829 53.6933 9.8095 53.6933 10.9567Z" fill="white"/>
<path fill-rule="evenodd" clip-rule="evenodd" d="M58.918 12.1193C58.918 11.6442 58.8151 11.2359 58.6093 10.8955C58.3696 10.4828 58.0259 10.277 57.5803 10.277C57.1195 10.277 56.7692 10.4828 56.5284 10.8955C56.3237 11.2359 56.2208 11.6508 56.2208 12.1401C56.2208 12.6163 56.3237 13.0246 56.5284 13.3662C56.7768 13.7767 57.1228 13.9825 57.5694 13.9825C58.0084 13.9825 58.351 13.7734 58.5995 13.3552C58.8118 13.0071 58.918 12.5955 58.918 12.1193ZM60.1079 12.0821C60.1079 12.8758 59.8813 13.526 59.4282 14.0361C58.9531 14.5605 58.3236 14.8221 57.5376 14.8221C56.7801 14.8221 56.177 14.5714 55.7271 14.0679C55.2782 13.5654 55.0527 12.9316 55.0527 12.1675C55.0527 11.3673 55.2837 10.7127 55.7479 10.2026C56.212 9.69244 56.836 9.43848 57.6219 9.43848C58.3805 9.43848 58.9881 9.69025 59.4489 10.1927C59.8868 10.6809 60.1079 11.3115 60.1079 12.0821Z" fill="white"/>
<path fill-rule="evenodd" clip-rule="evenodd" d="M68.707 9.54443L67.0923 14.7047H66.0425L65.3726 12.4639C65.2029 11.9046 65.065 11.3496 64.9577 10.7967H64.938C64.8384 11.3638 64.7005 11.9199 64.5231 12.4639L63.8116 14.7047H62.7498L61.2314 9.54443H62.4104L62.9939 11.9965C63.1351 12.5778 63.2522 13.1295 63.3453 13.6538H63.365C63.4504 13.2225 63.5916 12.673 63.7908 12.0075L64.5231 9.54443H65.4569L66.1586 11.9549C66.3282 12.5427 66.4662 13.1087 66.5724 13.6538H66.6041C66.6818 13.1229 66.799 12.557 66.9555 11.9549L67.5817 9.54443H68.707Z" fill="white"/>
<path fill-rule="evenodd" clip-rule="evenodd" d="M74.6541 14.705H73.5068V11.7493C73.5068 10.8386 73.1609 10.3832 72.4669 10.3832C72.1265 10.3832 71.8506 10.5091 71.6382 10.7597C71.4259 11.0104 71.3197 11.3049 71.3197 11.6442V14.705H70.1725V11.0203C70.1725 10.5671 70.1582 10.0756 70.1309 9.54466H71.1391L71.1927 10.3514H71.2244C71.358 10.1008 71.5572 9.89277 71.8188 9.72857C72.1297 9.53481 72.4778 9.43848 72.8588 9.43848C73.3405 9.43848 73.7411 9.59392 74.0596 9.9059C74.4559 10.2879 74.6541 10.8572 74.6541 11.6147V14.705Z" fill="white"/>
<path fill-rule="evenodd" clip-rule="evenodd" d="M76.6719 14.7048H77.818V7.17676H76.6719V14.7048Z" fill="white"/>
<path fill-rule="evenodd" clip-rule="evenodd" d="M83.3807 12.1193C83.3807 11.6442 83.2778 11.2359 83.0731 10.8955C82.8333 10.4828 82.4885 10.277 82.0441 10.277C81.5821 10.277 81.2318 10.4828 80.9921 10.8955C80.7874 11.2359 80.6845 11.6508 80.6845 12.1401C80.6845 12.6163 80.7874 13.0246 80.9921 13.3662C81.2406 13.7767 81.5865 13.9825 82.0331 13.9825C82.4721 13.9825 82.8136 13.7734 83.0621 13.3552C83.2756 13.0071 83.3807 12.5955 83.3807 12.1193ZM84.5717 12.0821C84.5717 12.8758 84.3451 13.526 83.8919 14.0361C83.4168 14.5605 82.7863 14.8221 82.0014 14.8221C81.2428 14.8221 80.6396 14.5714 80.1908 14.0679C79.742 13.5654 79.5176 12.9316 79.5176 12.1675C79.5176 11.3673 79.7486 10.7127 80.2116 10.2026C80.6757 9.69244 81.3008 9.43848 82.0846 9.43848C82.8443 9.43848 83.4507 9.69025 83.9127 10.1927C84.3517 10.6809 84.5717 11.3115 84.5717 12.0821Z" fill="white"/>
<path fill-rule="evenodd" clip-rule="evenodd" d="M88.9332 12.9316V12.1358C87.6678 12.1139 87.035 12.4609 87.035 13.1757C87.035 13.445 87.1073 13.6464 87.2551 13.7811C87.4028 13.9157 87.5911 13.9825 87.8155 13.9825C88.0673 13.9825 88.3027 13.9037 88.5161 13.7438C88.7329 13.5851 88.8653 13.3815 88.9146 13.1341C88.9266 13.0772 88.9332 13.0093 88.9332 12.9316ZM90.1242 14.705H89.0941L89.0076 14.1105H88.9759C88.6234 14.5845 88.1209 14.8221 87.4685 14.8221C86.9814 14.8221 86.5884 14.6666 86.2907 14.3547C86.0214 14.0711 85.8867 13.7208 85.8867 13.3038C85.8867 12.6732 86.1494 12.1927 86.6782 11.8588C87.2058 11.5271 87.948 11.364 88.9036 11.3706V11.2753C88.9036 10.5955 88.5468 10.2562 87.832 10.2562C87.3229 10.2562 86.8741 10.3832 86.4877 10.6382L86.2545 9.88401C86.7329 9.58735 87.3251 9.43848 88.0246 9.43848C89.3733 9.43848 90.0498 10.15 90.0498 11.5731V13.4734C90.0498 13.9901 90.0749 14.4006 90.1242 14.705Z" fill="white"/>
<path fill-rule="evenodd" clip-rule="evenodd" d="M95.454 12.5286V11.6682C95.454 11.5193 95.4431 11.3989 95.4223 11.307C95.3577 11.0311 95.2187 10.799 95.0074 10.6118C94.7939 10.4236 94.5367 10.3305 94.24 10.3305C93.812 10.3305 93.477 10.5002 93.2307 10.8395C92.9866 11.18 92.8629 11.6146 92.8629 12.1455C92.8629 12.6556 92.9801 13.0694 93.2154 13.3879C93.4639 13.7273 93.7989 13.8981 94.2181 13.8981C94.5947 13.8981 94.8957 13.7558 95.1245 13.4733C95.3456 13.2117 95.454 12.8964 95.454 12.5286ZM96.6428 14.7048H95.6248L95.5722 13.8762H95.5394C95.2143 14.5067 94.6615 14.822 93.8832 14.822C93.2603 14.822 92.7436 14.5779 92.3331 14.0896C91.9226 13.6003 91.7168 12.9676 91.7168 12.1882C91.7168 11.3529 91.939 10.6764 92.3856 10.1608C92.818 9.67918 93.3479 9.43836 93.9795 9.43836C94.6713 9.43836 95.1574 9.67152 95.4332 10.1389H95.454V7.17676H96.6023V13.3146C96.6023 13.8171 96.6155 14.2801 96.6428 14.7048Z" fill="white"/>
<path fill-rule="evenodd" clip-rule="evenodd" d="M105.266 12.1193C105.266 11.6442 105.163 11.2359 104.958 10.8955C104.716 10.4828 104.375 10.277 103.927 10.277C103.468 10.277 103.117 10.4828 102.875 10.8955C102.67 11.2359 102.567 11.6508 102.567 12.1401C102.567 12.6163 102.67 13.0246 102.875 13.3662C103.123 13.7767 103.469 13.9825 103.917 13.9825C104.355 13.9825 104.7 13.7734 104.947 13.3552C105.158 13.0071 105.266 12.5955 105.266 12.1193ZM106.454 12.0821C106.454 12.8758 106.228 13.526 105.775 14.0361C105.3 14.5605 104.671 14.8221 103.884 14.8221C103.128 14.8221 102.525 14.5714 102.074 14.0679C101.625 13.5654 101.4 12.9316 101.4 12.1675C101.4 11.3673 101.631 10.7127 102.096 10.2026C102.559 9.69244 103.184 9.43848 103.971 9.43848C104.727 9.43848 105.337 9.69025 105.796 10.1927C106.234 10.6809 106.454 11.3115 106.454 12.0821Z" fill="white"/>
<path fill-rule="evenodd" clip-rule="evenodd" d="M112.624 14.705H111.478V11.7493C111.478 10.8386 111.132 10.3832 110.437 10.3832C110.096 10.3832 109.82 10.5091 109.609 10.7597C109.398 11.0104 109.29 11.3049 109.29 11.6442V14.705H108.142V11.0203C108.142 10.5671 108.129 10.0756 108.102 9.54466H109.109L109.162 10.3514H109.194C109.329 10.1008 109.528 9.89277 109.788 9.72857C110.1 9.53481 110.447 9.43848 110.829 9.43848C111.311 9.43848 111.711 9.59392 112.029 9.9059C112.427 10.2879 112.624 10.8572 112.624 11.6147V14.705Z" fill="white"/>
<path fill-rule="evenodd" clip-rule="evenodd" d="M120.344 10.4037H119.08V12.9106C119.08 13.5477 119.304 13.8662 119.75 13.8662C119.954 13.8662 120.125 13.8487 120.26 13.8126L120.29 14.6839C120.064 14.7682 119.766 14.8109 119.398 14.8109C118.945 14.8109 118.593 14.673 118.339 14.3971C118.081 14.1202 117.956 13.6571 117.956 13.0058V10.4037H117.2V9.54443H117.956V8.59863L119.08 8.25928V9.54443H120.344V10.4037Z" fill="white"/>
<path fill-rule="evenodd" clip-rule="evenodd" d="M126.418 14.7048H125.271V11.7711C125.271 10.8461 124.924 10.3831 124.231 10.3831C123.699 10.3831 123.335 10.6513 123.136 11.1887C123.102 11.3015 123.084 11.4394 123.084 11.6014V14.7048H121.938V7.17676H123.084V10.2867H123.104C123.466 9.72078 123.983 9.43836 124.654 9.43836C125.13 9.43836 125.523 9.5938 125.835 9.90578C126.224 10.2944 126.418 10.8724 126.418 11.6365V14.7048Z" fill="white"/>
<path fill-rule="evenodd" clip-rule="evenodd" d="M131.588 11.5829C131.596 11.2436 131.521 10.9491 131.365 10.7017C131.166 10.3831 130.863 10.2244 130.452 10.2244C130.078 10.2244 129.773 10.3799 129.539 10.6918C129.349 10.9392 129.236 11.237 129.199 11.5829H131.588ZM132.682 11.8807C132.682 12.0865 132.667 12.2594 132.64 12.4006H129.199C129.214 12.9107 129.379 13.2994 129.697 13.5686C129.988 13.8095 130.365 13.9299 130.825 13.9299C131.334 13.9299 131.797 13.8489 132.216 13.6858L132.395 14.4816C131.906 14.694 131.331 14.8012 130.664 14.8012C129.865 14.8012 129.236 14.5659 128.781 14.0941C128.323 13.6234 128.097 12.9918 128.097 12.1992C128.097 11.4209 128.308 10.7728 128.734 10.2562C129.178 9.70335 129.779 9.42749 130.538 9.42749C131.28 9.42749 131.844 9.70335 132.225 10.2562C132.53 10.6951 132.682 11.237 132.682 11.8807Z" fill="white"/>
</g>
<defs>
<clipPath id="clip0_2233_1550">
<rect width="148" height="44" fill="white"/>
</clipPath>
</defs>
</svg>
