<svg width="16" height="9" viewBox="0 0 16 9" fill="none" xmlns="http://www.w3.org/2000/svg">
<path d="M15.0609 0.85423C14.9216 0.714841 14.7562 0.604266 14.5741 0.528823C14.3921 0.453381 14.197 0.414551 13.9999 0.414551C13.8028 0.414551 13.6077 0.453381 13.4256 0.528823C13.2436 0.604266 13.0782 0.714841 12.9389 0.85423L8.35289 5.43923C8.25912 5.53297 8.13197 5.58562 7.99939 5.58562C7.86681 5.58562 7.73965 5.53297 7.64589 5.43923L3.06088 0.85423C2.77962 0.572836 2.3981 0.414697 2.00024 0.414603C1.60238 0.414509 1.22078 0.572468 0.939383 0.85373C0.657988 1.13499 0.49985 1.51652 0.499756 1.91438C0.499662 2.31224 0.657621 2.69384 0.938883 2.97523L5.52489 7.56123C5.8499 7.88627 6.23575 8.14411 6.66041 8.32003C7.08508 8.49594 7.54023 8.58648 7.99989 8.58648C8.45955 8.58648 8.9147 8.49594 9.33936 8.32003C9.76403 8.14411 10.1499 7.88627 10.4749 7.56123L15.0609 2.97523C15.3421 2.69394 15.5001 2.31248 15.5001 1.91473C15.5001 1.51698 15.3421 1.13552 15.0609 0.85423Z" fill="#001489"/>
</svg>
