<svg width="16" height="16" viewBox="0 0 16 16" fill="none" xmlns="http://www.w3.org/2000/svg">
<path d="M7.33333 7.33333H0V2C0 1.46957 0.210714 0.960859 0.585786 0.585786C0.960859 0.210714 1.46957 0 2 0L7.33333 0V7.33333ZM1.33333 6H6V1.33333H2C1.82319 1.33333 1.65362 1.40357 1.5286 1.5286C1.40357 1.65362 1.33333 1.82319 1.33333 2V6Z" fill="#001489"/>
<path d="M15.9998 7.33333H8.6665V0H13.9998C14.5303 0 15.039 0.210714 15.4141 0.585786C15.7891 0.960859 15.9998 1.46957 15.9998 2V7.33333ZM9.99984 6H14.6665V2C14.6665 1.82319 14.5963 1.65362 14.4712 1.5286C14.3462 1.40357 14.1766 1.33333 13.9998 1.33333H9.99984V6Z" fill="#001489"/>
<path d="M7.33333 16H2C1.46957 16 0.960859 15.7893 0.585786 15.4142C0.210714 15.0391 0 14.5304 0 14L0 8.66667H7.33333V16ZM1.33333 10V14C1.33333 14.1768 1.40357 14.3464 1.5286 14.4714C1.65362 14.5964 1.82319 14.6667 2 14.6667H6V10H1.33333Z" fill="#001489"/>
<path d="M13.9998 16H8.6665V8.66667H15.9998V14C15.9998 14.5304 15.7891 15.0391 15.4141 15.4142C15.039 15.7893 14.5303 16 13.9998 16ZM9.99984 14.6667H13.9998C14.1766 14.6667 14.3462 14.5964 14.4712 14.4714C14.5963 14.3464 14.6665 14.1768 14.6665 14V10H9.99984V14.6667Z" fill="#001489"/>
</svg>
