<svg width="20" height="21" viewBox="0 0 20 21" fill="none" xmlns="http://www.w3.org/2000/svg">
<path d="M14.1667 15.4938V20.4938H17.5C18.8807 20.4938 20 19.3745 20 17.9938V10.393C20.0002 9.96004 19.832 9.54403 19.5308 9.23297L12.4492 1.57711C11.1996 0.225155 9.09074 0.142147 7.73879 1.39168C7.67457 1.45105 7.61269 1.51289 7.55336 1.57711L0.48418 9.23047C0.173945 9.54282 -0.000117128 9.96524 5.91339e-08 10.4055V17.9938C5.91339e-08 19.3745 1.1193 20.4938 2.5 20.4938H5.83332V15.4938C5.84891 13.2215 7.68355 11.3658 9.89867 11.3124C12.1879 11.2572 14.1492 13.1444 14.1667 15.4938Z" fill="#101828"/>
<path d="M10 12.9938C8.6193 12.9938 7.5 14.1131 7.5 15.4938V20.4938H12.5V15.4938C12.5 14.1131 11.3807 12.9938 10 12.9938Z" fill="#101828"/>
</svg>
