<?xml version="1.0" standalone="no"?>
<!DOCTYPE svg PUBLIC "-//W3C//DTD SVG 20010904//EN"
 "http://www.w3.org/TR/2001/REC-SVG-20010904/DTD/svg10.dtd">
<svg version="1.0" xmlns="http://www.w3.org/2000/svg"
 width="2880.000000pt" height="960.000000pt" viewBox="0 0 2880.000000 960.000000"
 preserveAspectRatio="xMidYMid meet">

<g transform="translate(0.000000,960.000000) scale(0.100000,-0.100000)"
fill="#000000" stroke="none">
<path d="M4310 9550 c-263 -23 -481 -59 -718 -121 -711 -183 -1345 -548 -1867
-1074 -588 -592 -982 -1359 -1119 -2175 -43 -255 -51 -367 -50 -700 0 -269 3
-340 23 -485 89 -664 303 -1232 670 -1779 91 -135 142 -192 187 -206 62 -21
130 18 155 88 13 39 -2 91 -41 142 -58 74 -193 284 -261 406 -245 437 -395
908 -461 1444 -17 140 -17 669 0 815 106 890 476 1660 1097 2280 491 492 1089
832 1760 1000 317 80 567 110 925 110 358 0 608 -30 925 -110 628 -158 1201
-471 1679 -917 531 -496 922 -1167 1091 -1871 70 -292 94 -483 102 -803 10
-425 -32 -764 -143 -1154 -115 -400 -330 -843 -566 -1162 -30 -40 -61 -91 -67
-111 -32 -96 71 -193 160 -153 48 21 67 40 135 136 377 536 621 1150 708 1785
58 421 45 915 -34 1330 -162 850 -612 1654 -1250 2231 -648 587 -1421 937
-2290 1039 -160 19 -600 27 -750 15z"/>
<path d="M4504 9051 c-50 -12 -114 -53 -134 -87 -41 -66 -10 -155 70 -202 42
-25 53 -27 172 -27 105 0 130 3 144 17 36 36 -5 47 -95 26 -65 -15 -119 0
-155 43 -50 59 -44 62 137 59 89 -2 168 -2 175 -1 7 0 12 17 12 42 0 35 -6 47
-35 75 -58 55 -188 79 -291 55z m187 -67 c10 -9 19 -24 22 -35 5 -18 -1 -19
-88 -19 -51 0 -107 -3 -124 -6 -38 -8 -42 10 -11 49 36 46 156 52 201 11z"/>
<path d="M12215 8966 c-84 -26 -161 -99 -193 -181 -6 -16 -75 -248 -152 -515
-95 -330 -140 -501 -140 -534 0 -139 155 -225 279 -156 51 29 70 58 92 135
l16 60 194 0 194 0 11 -46 c22 -88 73 -152 132 -165 15 -3 33 -8 40 -10 22 -7
104 16 134 37 41 30 68 89 68 149 0 36 -42 195 -141 538 -77 268 -149 506
-159 529 -58 132 -230 205 -375 159z m159 -611 c30 -132 53 -241 52 -243 -2
-1 -55 -1 -118 0 l-114 3 51 220 c61 261 66 283 71 270 2 -5 28 -118 58 -250z"/>
<path d="M16348 8964 c-137 -33 -258 -125 -314 -239 -27 -56 -29 -68 -29 -180
0 -109 2 -125 27 -177 52 -112 161 -186 378 -257 52 -17 113 -41 135 -54 75
-42 85 -109 22 -148 -48 -30 -178 -23 -267 16 -125 54 -226 42 -275 -34 -49
-77 -40 -160 25 -222 79 -75 294 -127 480 -116 222 14 375 109 442 275 19 48
23 76 23 177 0 107 -3 125 -25 170 -55 114 -173 193 -392 265 -107 34 -155 62
-177 101 -12 22 -12 29 0 55 29 60 126 67 276 19 121 -39 182 -30 236 34 57
68 56 158 -4 225 -33 38 -131 78 -233 96 -82 14 -259 11 -328 -6z"/>
<path d="M17785 8960 c-64 -25 -118 -70 -151 -125 -15 -26 -78 -228 -155 -492
-178 -614 -171 -585 -158 -645 26 -117 166 -179 274 -120 39 21 69 63 90 130
l22 67 193 0 193 0 16 -60 c22 -77 41 -106 92 -135 125 -70 279 18 279 159 0
48 -266 985 -302 1065 -28 60 -85 118 -145 147 -66 32 -180 36 -248 9z m175
-603 l56 -242 -114 -3 c-63 -1 -116 -1 -118 0 -5 6 111 497 116 491 3 -2 30
-113 60 -246z"/>
<path d="M19255 8970 c-277 -59 -454 -280 -484 -603 -28 -289 56 -537 231
-684 58 -48 168 -100 253 -118 256 -54 557 50 641 222 l29 58 0 205 c0 194 -1
207 -23 247 -34 65 -82 85 -218 91 -188 8 -255 -9 -307 -80 -29 -38 -34 -125
-12 -173 24 -48 79 -84 143 -92 l52 -6 0 -43 c0 -53 -28 -78 -106 -94 -100
-21 -199 29 -247 125 -21 42 -47 173 -47 237 0 149 49 285 120 337 45 33 110
47 160 36 18 -4 58 -30 91 -60 69 -64 117 -81 181 -65 118 31 166 159 97 263
-44 67 -113 125 -199 166 -71 34 -79 35 -195 38 -66 1 -138 -2 -160 -7z"/>
<path d="M22250 8964 c-236 -63 -392 -240 -445 -503 -25 -120 -17 -357 15
-456 57 -180 165 -317 304 -385 275 -136 605 -68 777 160 97 129 142 279 143
485 0 162 -19 256 -80 383 -78 161 -219 277 -385 317 -81 19 -256 18 -329 -1z
m247 -345 c94 -45 142 -148 150 -319 8 -167 -26 -281 -106 -353 -63 -56 -139
-68 -211 -31 -170 86 -201 511 -48 663 62 63 139 77 215 40z"/>
<path d="M25005 8963 c-70 -37 -114 -105 -115 -177 0 -50 272 -995 306 -1064
107 -211 420 -222 538 -19 31 53 316 1035 316 1088 0 69 -44 135 -114 171 -85
44 -212 4 -255 -80 -10 -20 -60 -216 -112 -434 -51 -219 -96 -398 -99 -398 -3
0 -48 181 -100 402 -105 446 -114 469 -192 507 -53 25 -130 27 -173 4z"/>
<path d="M13399 8950 c-45 -13 -79 -42 -102 -84 -22 -41 -22 -44 -22 -596 0
-305 3 -567 8 -582 10 -36 62 -95 101 -115 44 -23 135 -21 176 3 18 10 47 36
64 57 l31 39 5 176 5 177 54 0 54 0 106 -186 c137 -239 134 -235 184 -260 88
-46 201 -18 254 63 23 33 28 52 28 102 0 59 -3 66 -87 209 -49 81 -88 149 -88
152 0 2 22 25 49 50 81 76 131 205 131 340 0 176 -91 340 -229 409 -98 50
-143 56 -431 55 -146 0 -277 -4 -291 -9z m474 -334 c56 -23 72 -50 72 -121 0
-53 -4 -67 -24 -89 -34 -36 -82 -48 -176 -44 l-80 3 -3 119 c-1 66 0 126 2
133 7 18 166 18 209 -1z"/>
<path d="M14877 8946 c-45 -17 -73 -40 -96 -81 -14 -27 -16 -89 -16 -600 l0
-570 25 -43 c75 -132 279 -125 341 12 16 36 19 67 19 244 l0 202 183 0 c170 0
185 2 222 23 85 47 109 165 50 243 -44 58 -71 64 -275 64 l-180 0 0 95 0 95
191 0 c176 0 194 2 229 21 109 61 106 235 -5 289 -39 19 -61 20 -346 20 -230
-1 -313 -4 -342 -14z"/>
<path d="M23544 8941 c-47 -22 -80 -59 -95 -110 -7 -24 -9 -220 -7 -586 l3
-550 24 -38 c45 -72 66 -77 359 -77 199 0 271 3 317 15 223 57 370 206 437
442 29 103 32 340 5 448 -46 185 -156 329 -308 404 -121 60 -196 71 -467 71
-199 0 -232 -3 -268 -19z m500 -333 c23 -7 59 -30 83 -54 58 -59 83 -142 83
-279 0 -146 -25 -222 -94 -291 -43 -43 -60 -54 -108 -63 -31 -7 -83 -11 -115
-9 l-58 3 -3 353 -2 352 86 0 c48 0 105 -6 128 -12z"/>
<path d="M6196 8583 c-102 -205 -206 -435 -206 -457 0 -28 33 -56 67 -56 25 0
47 28 93 120 18 36 34 67 36 69 2 2 34 -14 71 -35 139 -77 154 -83 224 -84 57
0 71 4 106 29 47 34 83 101 83 155 0 46 -28 101 -72 143 -64 61 -289 183 -338
183 -27 0 -33 -7 -64 -67z m227 -89 c125 -73 151 -143 78 -215 -53 -53 -88
-53 -192 4 -44 23 -79 46 -79 51 0 12 104 206 110 206 3 0 40 -20 83 -46z"/>
<path d="M4055 8576 c-96 -35 -156 -73 -212 -134 -79 -87 -102 -152 -110 -317
-10 -215 32 -301 266 -539 288 -294 374 -371 453 -410 40 -20 94 -39 119 -42
118 -16 256 65 453 265 70 72 138 139 151 149 37 29 207 223 239 271 46 72 67
160 73 309 4 95 2 132 -6 132 -6 0 -11 9 -11 20 0 11 -7 23 -15 26 -8 4 -15
15 -15 25 0 11 -7 22 -15 25 -8 4 -15 15 -15 26 0 27 -97 138 -120 138 -10 0
-23 6 -29 13 -6 8 -30 19 -53 26 -24 7 -56 19 -71 27 -38 19 -156 18 -181 -1
-11 -8 -32 -15 -46 -15 -14 0 -31 -5 -38 -12 -6 -6 -23 -13 -38 -14 -31 -3
-164 -129 -164 -156 0 -9 -4 -20 -10 -23 -5 -3 -10 -20 -10 -36 0 -30 -1 -30
-47 -27 -34 2 -48 7 -49 18 -1 8 -2 20 -3 26 0 7 -8 15 -17 18 -12 5 -14 1 -9
-17 12 -44 29 -68 53 -74 23 -5 70 12 84 31 3 5 14 2 23 -7 20 -21 34 -22 41
-2 5 11 22 15 68 15 50 0 63 -4 74 -20 7 -11 21 -20 32 -20 15 0 20 -7 20 -26
0 -14 4 -23 10 -19 6 4 10 -6 10 -23 0 -24 5 -31 24 -34 21 -4 25 -1 28 21 3
24 6 26 48 23 32 -2 41 0 30 7 -8 5 -11 14 -6 18 13 14 65 -53 59 -76 -4 -16
-1 -21 16 -21 14 0 21 -7 22 -20 1 -11 2 -26 3 -32 0 -7 9 -13 19 -12 9 0 40
1 67 2 37 2 50 6 50 17 0 8 7 15 16 15 10 0 14 -6 11 -14 -3 -8 1 -17 9 -20
26 -10 54 -7 54 6 0 6 10 22 21 34 13 14 23 41 27 69 6 60 22 39 22 -31 0 -56
-22 -98 -85 -164 -18 -19 -59 -64 -92 -98 -32 -35 -83 -84 -113 -108 -69 -56
-140 -124 -140 -134 0 -5 -28 -31 -62 -58 -35 -28 -90 -76 -123 -106 -40 -38
-68 -56 -86 -56 -14 0 -30 -5 -37 -12 -7 -7 -12 -8 -12 -3 1 6 15 19 33 30 23
15 31 27 29 43 -3 19 0 21 27 16 20 -4 31 -2 31 5 0 19 89 97 116 103 14 2 20
13 22 41 4 41 -6 47 -33 17 -10 -11 -31 -20 -47 -20 -21 0 -28 -5 -28 -18 0
-33 -30 -82 -51 -82 -10 0 -19 7 -19 15 0 8 -2 15 -5 15 -14 0 -104 -100 -102
-112 2 -7 2 -10 0 -6 -9 16 -75 21 -84 7 -6 -11 -11 -11 -20 -2 -9 9 -9 16 -1
26 9 11 7 17 -13 27 -13 7 -23 16 -20 19 9 15 -13 31 -45 33 -32 3 -35 1 -35
-24 0 -14 -3 -30 -7 -34 -5 -4 -8 -15 -8 -25 0 -22 39 -36 50 -19 5 8 16 10
25 6 17 -6 16 -8 -4 -29 -29 -32 -26 -41 10 -33 17 3 40 1 51 -5 15 -8 24 -7
39 7 16 14 22 15 32 5 17 -17 -20 -44 -52 -38 -14 3 -35 0 -47 -5 -19 -9 -29
-5 -65 26 -24 20 -47 36 -53 36 -5 0 -30 17 -55 38 -25 21 -57 45 -71 54 -14
8 -55 44 -91 79 -36 35 -109 105 -164 154 -216 198 -285 288 -285 375 0 50 14
68 32 42 14 -20 14 -20 26 -1 13 21 42 26 42 8 0 -26 57 -97 86 -108 41 -15
70 -4 122 48 33 33 42 49 42 76 0 30 4 35 28 41 15 3 37 10 50 15 13 5 30 9
38 9 8 0 34 9 56 20 51 24 57 25 74 3 13 -17 15 -17 28 0 16 21 26 22 26 2 0
-21 47 -19 58 3 10 19 4 82 -8 82 -4 0 -5 11 -2 25 4 24 22 36 22 14 0 -14 29
-43 37 -36 3 4 3 13 0 20 -7 19 -67 61 -67 48 0 -6 -5 -11 -11 -11 -6 0 -8 8
-5 18 8 25 -60 99 -99 107 -17 3 -45 13 -63 21 -48 21 -155 16 -227 -10z m760
-86 c3 -5 1 -10 -4 -10 -6 0 -11 5 -11 10 0 6 2 10 4 10 3 0 8 -4 11 -10z
m-45 -50 c0 -5 -7 -7 -15 -4 -8 4 -12 10 -9 15 6 11 24 2 24 -11z m570 -1 c0
-14 -17 -10 -23 5 -4 10 -1 13 9 9 7 -3 14 -9 14 -14z m-1065 -14 c30 -30 31
-54 4 -89 -16 -20 -29 -26 -61 -26 -85 0 -148 -53 -148 -125 0 -40 -2 -44 -37
-58 -43 -17 -64 -13 -98 19 -45 42 -25 119 52 205 60 66 126 99 201 99 54 0
67 -4 87 -25z m865 0 c72 -37 115 -79 149 -146 25 -49 28 -65 20 -92 -9 -34
-42 -67 -65 -67 -27 0 -63 32 -69 62 -4 16 -26 49 -48 73 -34 34 -51 44 -89
49 -90 13 -127 68 -78 117 38 39 109 40 180 4z m-413 -27 c-3 -7 -5 -2 -5 12
0 14 2 19 5 13 2 -7 2 -19 0 -25z m163 -18 c0 -38 -12 -52 -25 -30 -9 14 4 70
16 70 5 0 9 -18 9 -40z m-543 -27 c-3 -10 -5 -2 -5 17 0 19 2 27 5 18 2 -10 2
-26 0 -35z m1020 -115 c-3 -7 -5 -2 -5 12 0 14 2 19 5 13 2 -7 2 -19 0 -25z"/>
<path d="M3005 8557 c-161 -54 -255 -180 -224 -302 25 -97 116 -160 232 -159
57 1 79 7 141 38 120 59 188 156 115 164 -20 2 -38 -9 -76 -46 -55 -54 -119
-79 -172 -67 -33 7 -91 50 -91 67 0 5 79 47 175 94 119 57 175 89 175 100 0
29 -33 72 -73 94 -48 28 -145 35 -202 17z m123 -110 l23 -23 -123 -62 c-67
-33 -126 -58 -130 -56 -4 3 -8 19 -8 35 0 115 158 185 238 106z"/>
<path d="M2351 8384 c-26 -21 -31 -33 -29 -58 3 -27 7 -31 34 -34 46 -5 96 40
92 82 -3 27 -7 31 -34 34 -22 2 -40 -5 -63 -24z"/>
<path d="M2484 8250 c-24 -10 -54 -47 -54 -68 0 -24 224 -311 248 -318 28 -8
70 19 78 50 4 19 -16 55 -102 177 -58 85 -112 157 -118 161 -14 10 -25 9 -52
-2z"/>
<path d="M21035 8200 c-85 -56 -87 -182 -3 -242 31 -22 42 -23 178 -23 136 0
147 1 178 23 60 44 79 118 46 188 -30 63 -62 74 -225 74 -127 0 -148 -3 -174
-20z"/>
<path d="M2045 8135 c-47 -46 -38 -60 141 -247 214 -223 230 -238 254 -238 11
0 29 9 41 21 40 40 25 63 -169 283 -161 182 -186 206 -213 206 -18 0 -39 -9
-54 -25z"/>
<path d="M6740 8052 c0 -24 26 -47 75 -68 90 -37 155 -116 136 -166 -5 -12
-18 -31 -29 -41 -19 -17 -20 -17 -33 15 -29 72 -119 146 -195 162 -113 25
-187 -121 -114 -222 37 -51 102 -100 144 -108 29 -5 32 -9 32 -41 0 -40 23
-63 63 -63 19 0 54 29 138 113 108 108 113 115 113 155 0 56 -31 114 -91 173
-86 83 -239 142 -239 91z m56 -211 c31 -19 64 -74 64 -107 0 -22 -58 -84 -79
-84 -35 1 -100 40 -115 69 -24 45 -20 79 13 112 35 34 72 37 117 10z"/>
<path d="M5335 8033 c-11 -3 -24 -10 -30 -17 -5 -7 -18 -15 -27 -19 -18 -6
-25 -42 -10 -50 10 -7 49 26 45 38 -2 6 10 16 27 23 16 8 30 18 30 23 0 9 -3
10 -35 2z"/>
<path d="M5090 7805 c0 -28 12 -32 30 -10 14 16 6 35 -16 35 -8 0 -14 -10 -14
-25z"/>
<path d="M4098 7789 c-16 -10 22 -39 52 -39 34 0 47 15 30 35 -11 14 -62 16
-82 4z"/>
<path d="M5037 7781 c-6 -23 0 -31 24 -31 24 0 33 18 19 35 -17 21 -37 19 -43
-4z"/>
<path d="M1933 7740 c-12 -5 -30 -21 -39 -35 -14 -22 -16 -32 -7 -56 11 -27
10 -29 -23 -38 -107 -30 -174 -170 -130 -274 43 -104 198 -172 301 -133 77 30
137 126 120 194 l-6 26 33 -26 c78 -59 71 -119 -24 -209 -59 -56 -73 -91 -42
-103 23 -9 96 37 133 83 43 54 81 139 81 183 0 68 -27 103 -197 253 -90 80
-167 145 -171 144 -4 0 -17 -4 -29 -9z m98 -217 c38 -31 72 -65 75 -76 16 -50
-28 -125 -83 -141 -83 -25 -221 98 -198 176 14 45 79 96 123 98 7 0 45 -26 83
-57z"/>
<path d="M4986 7734 c-18 -18 -21 -40 -6 -49 16 -10 40 15 40 41 0 28 -12 31
-34 8z"/>
<path d="M4207 7713 c-12 -12 -7 -31 10 -37 24 -9 39 9 23 29 -14 16 -23 19
-33 8z"/>
<path d="M4306 7670 c-15 -5 -16 -9 -7 -14 7 -5 18 -3 24 3 14 14 6 20 -17 11z"/>
<path d="M4372 7658 c3 -7 13 -15 24 -17 16 -3 17 -1 5 13 -16 19 -34 21 -29
4z"/>
<path d="M7227 7653 c-18 -18 -1 -55 58 -128 36 -44 65 -82 65 -86 0 -3 -86
-8 -191 -11 -259 -8 -264 -13 -139 -173 126 -162 126 -161 147 -149 32 19 25
47 -32 126 -30 42 -55 79 -55 82 0 3 92 6 205 6 l205 0 0 28 c0 28 -40 93
-118 192 -83 105 -123 136 -145 113z"/>
<path d="M4297 7633 c-14 -13 -6 -41 12 -46 31 -8 38 6 15 30 -11 13 -24 20
-27 16z"/>
<path d="M4386 7561 c-9 -14 4 -40 24 -51 21 -11 30 -4 30 26 0 28 -41 47 -54
25z"/>
<path d="M1351 7234 c-15 -19 -21 -39 -19 -63 3 -32 6 -36 34 -39 41 -4 67 26
68 81 1 40 0 42 -30 45 -25 2 -37 -3 -53 -24z"/>
<path d="M7724 7215 c-8 -32 12 -82 38 -96 11 -6 31 -8 44 -5 20 5 24 13 24
44 0 48 -29 82 -70 82 -23 0 -31 -5 -36 -25z"/>
<path d="M1516 7148 c-9 -12 -16 -38 -16 -58 l0 -35 165 -83 c91 -45 176 -82
190 -82 29 0 58 39 53 72 -2 18 -38 42 -167 115 -90 51 -174 93 -187 93 -12 0
-30 -10 -38 -22z"/>
<path d="M7440 7059 c-85 -50 -161 -95 -167 -101 -18 -15 -16 -63 3 -82 8 -9
25 -16 36 -16 23 0 338 165 351 184 20 29 -21 106 -57 106 -6 0 -81 -41 -166
-91z"/>
<path d="M14315 6811 c-36 -15 -58 -49 -63 -99 -3 -41 0 -52 23 -80 36 -43 85
-56 136 -35 47 18 69 55 69 114 0 33 -6 47 -34 75 -27 27 -42 34 -72 33 -22 0
-48 -4 -59 -8z"/>
<path d="M15952 6786 c-32 -30 -37 -40 -37 -79 0 -142 197 -166 232 -29 10 40
-14 101 -50 122 -51 31 -100 26 -145 -14z"/>
<path d="M23355 6798 c-60 -47 -66 -125 -14 -177 69 -69 183 -30 196 66 13
102 -103 173 -182 111z"/>
<path d="M7584 6796 c-51 -23 -100 -73 -124 -128 -41 -95 -14 -219 65 -307 45
-50 78 -53 83 -8 3 21 -6 38 -31 66 -42 46 -61 100 -53 146 8 41 72 113 87 98
5 -5 32 -72 60 -149 68 -190 65 -184 92 -184 70 0 137 94 137 192 0 191 -169
338 -316 274z m172 -115 c75 -46 85 -172 17 -216 -27 -18 -20 -29 -78 123 -19
52 -32 98 -29 103 9 15 57 10 90 -10z"/>
<path d="M1356 6766 c-53 -55 -69 -136 -41 -203 19 -44 19 -43 -3 -43 -37 0
-84 -73 -96 -147 -6 -39 3 -103 20 -146 5 -13 0 -17 -20 -17 -15 0 -30 -8 -36
-19 -14 -27 -13 -86 3 -99 13 -10 324 -62 376 -62 43 0 68 58 43 98 -5 6 -69
24 -143 38 -157 31 -170 40 -177 117 -4 46 -1 57 21 83 l25 29 129 -34 c176
-47 187 -48 207 -20 17 25 20 56 7 77 -4 7 -66 31 -137 53 -71 22 -137 48
-147 57 -10 10 -20 34 -23 53 -5 28 -1 41 19 65 l25 29 64 -22 c34 -11 104
-36 155 -54 90 -33 92 -33 112 -15 24 21 29 77 9 94 -30 24 -290 122 -324 122
-29 0 -44 -7 -68 -34z"/>
<path d="M11296 6750 c-36 -11 -81 -53 -95 -89 -15 -38 -151 -667 -151 -698 0
-38 60 -93 102 -93 54 0 96 32 109 85 l11 45 78 0 78 0 6 -35 c4 -19 18 -47
31 -62 20 -24 31 -28 75 -28 44 0 55 4 76 28 13 15 26 38 29 50 8 30 -140 691
-163 731 -20 35 -93 76 -132 75 -14 0 -38 -5 -54 -9z m78 -385 c10 -66 20
-130 23 -142 5 -22 2 -23 -47 -23 -52 0 -52 0 -47 28 3 15 13 84 23 154 10 70
21 122 25 115 4 -6 14 -66 23 -132z"/>
<path d="M18753 6746 c-62 -28 -63 -36 -63 -438 0 -398 -1 -391 60 -423 38
-20 75 -19 111 2 59 35 60 46 57 443 l-3 360 -30 30 c-37 36 -87 46 -132 26z"/>
<path d="M25855 6751 c-11 -5 -29 -19 -40 -31 -19 -21 -20 -38 -23 -402 l-3
-379 35 -35 c45 -45 92 -47 138 -5 l33 29 0 386 0 386 -26 25 c-27 28 -82 40
-114 26z"/>
<path d="M19891 6676 c-35 -19 -50 -54 -51 -113 0 -43 -3 -53 -20 -58 -30 -9
-53 -61 -46 -103 6 -37 31 -72 53 -72 10 0 13 -34 13 -169 0 -176 6 -209 43
-250 30 -32 61 -42 130 -42 71 -1 102 17 117 68 16 52 0 90 -45 109 l-35 14 0
133 0 132 28 13 c31 13 52 49 52 86 0 28 -33 72 -60 81 -16 5 -20 15 -20 46 0
107 -79 169 -159 125z"/>
<path d="M11925 6508 c-102 -38 -154 -139 -126 -245 21 -77 71 -119 189 -158
57 -18 72 -36 52 -60 -16 -19 -87 -19 -120 0 -35 20 -84 18 -111 -4 -27 -22
-33 -87 -10 -114 23 -28 119 -57 190 -58 133 -1 218 49 246 146 36 122 -22
219 -158 264 -85 29 -106 44 -88 65 17 21 61 20 122 -1 47 -17 49 -17 76 3 62
46 54 108 -19 145 -50 26 -193 36 -243 17z"/>
<path d="M12510 6504 c-75 -32 -120 -102 -120 -184 0 -97 50 -160 157 -199 32
-12 65 -25 73 -30 20 -11 25 -42 8 -52 -20 -13 -80 -10 -108 6 -42 24 -95 19
-119 -11 -67 -85 28 -164 198 -164 81 0 158 27 193 66 50 56 63 166 28 234
-25 49 -71 85 -142 109 -74 26 -98 39 -98 55 0 29 54 34 123 10 39 -13 50 -14
74 -2 15 7 34 26 42 42 35 74 -58 136 -202 136 -41 -1 -87 -7 -107 -16z"/>
<path d="M13150 6507 c-19 -6 -56 -32 -82 -58 -58 -58 -88 -144 -88 -254 0
-198 102 -325 261 -325 90 0 137 18 190 70 67 67 93 149 87 278 -3 80 -9 107
-32 154 -31 66 -88 120 -145 136 -47 15 -144 14 -191 -1z m136 -188 c16 -18
19 -37 19 -124 0 -87 -3 -106 -19 -124 -11 -12 -27 -21 -36 -21 -9 0 -25 9
-36 21 -16 18 -19 37 -19 124 0 87 3 106 19 124 11 12 27 21 36 21 9 0 25 -9
36 -21z"/>
<path d="M13825 6501 c-22 -10 -57 -36 -77 -59 -145 -161 -96 -481 84 -556 47
-20 167 -21 213 -2 59 25 77 97 34 142 -18 20 -33 24 -78 24 -90 1 -121 38
-121 145 0 107 31 144 121 145 46 0 59 4 79 25 29 31 32 85 6 114 -39 43 -187
56 -261 22z"/>
<path d="M14298 6491 l-33 -29 0 -267 0 -267 33 -29 c46 -42 93 -40 138 5 l34
34 0 257 0 257 -34 34 c-45 45 -92 47 -138 5z"/>
<path d="M14770 6501 c-97 -35 -126 -96 -71 -152 34 -34 46 -35 110 -12 81 28
141 -4 141 -77 l0 -39 -35 23 c-107 73 -247 15 -274 -113 -30 -143 48 -261
172 -261 53 0 79 10 119 47 26 25 26 25 33 4 3 -12 19 -28 35 -36 45 -23 85
-19 122 14 l33 29 0 224 c0 260 -5 280 -90 333 -43 26 -57 30 -144 32 -75 3
-108 -1 -151 -16z m164 -377 c25 -24 21 -90 -6 -108 -30 -21 -44 -20 -68 4
-24 24 -26 77 -3 102 20 22 56 23 77 2z"/>
<path d="M15985 6509 c-54 -31 -55 -34 -55 -315 l0 -261 24 -26 c46 -49 121
-46 160 6 20 27 21 43 24 260 3 242 -2 289 -37 321 -24 22 -89 30 -116 15z"/>
<path d="M16451 6494 c-97 -49 -146 -148 -146 -299 0 -207 97 -325 267 -325
80 0 129 18 176 63 98 93 127 286 67 431 -22 51 -83 116 -130 137 -63 29 -168
26 -234 -7z m145 -162 c24 -16 34 -55 34 -137 0 -101 -17 -145 -55 -145 -43 0
-59 39 -59 145 0 71 4 99 17 119 17 26 41 33 63 18z"/>
<path d="M17048 6491 l-33 -29 0 -267 0 -267 33 -29 c44 -39 90 -39 134 0 l33
29 3 185 c3 169 5 186 24 206 11 13 29 21 41 19 22 -3 22 -7 27 -206 l5 -204
33 -29 c35 -31 73 -37 117 -17 51 23 55 46 55 306 0 232 -1 240 -23 273 -29
43 -60 59 -120 59 -50 0 -96 -18 -133 -52 -21 -19 -21 -19 -57 17 -46 46 -92
48 -139 6z"/>
<path d="M17861 6507 c-54 -21 -108 -73 -137 -134 -23 -48 -29 -75 -32 -154
-7 -165 40 -267 147 -321 97 -49 251 -32 306 34 32 37 32 72 0 103 -28 29 -45
31 -108 9 -38 -13 -53 -14 -82 -4 -37 12 -65 43 -65 72 0 16 12 18 130 18 129
0 130 0 162 29 29 26 31 33 30 85 -2 77 -16 126 -55 182 -44 65 -92 88 -187
91 -42 1 -90 -3 -109 -10z m127 -164 c12 -10 24 -30 28 -45 l6 -28 -66 0 c-62
0 -66 1 -66 23 0 55 58 84 98 50z"/>
<path d="M19149 6491 l-29 -29 0 -264 c0 -289 1 -294 59 -318 42 -17 95 -5
121 27 18 24 20 40 20 197 0 153 2 174 20 204 20 33 47 41 68 20 8 -8 12 -66
12 -195 0 -200 6 -229 55 -251 63 -29 126 -1 146 66 7 24 9 116 7 257 -3 187
-6 225 -21 252 -22 41 -64 63 -121 63 -58 0 -93 -14 -133 -52 -30 -29 -31 -29
-38 -9 -10 34 -54 61 -97 61 -30 0 -46 -7 -69 -29z"/>
<path d="M20412 6494 c-58 -29 -90 -65 -124 -140 -19 -41 -23 -66 -23 -159 0
-98 3 -116 26 -166 32 -68 87 -123 145 -145 100 -38 275 2 298 69 13 36 -2 77
-35 96 -23 13 -33 13 -82 -3 -47 -15 -63 -16 -92 -6 -37 12 -65 43 -65 72 0
16 12 18 125 18 142 0 174 10 195 60 23 57 -8 189 -60 252 -67 81 -203 104
-308 52z m153 -159 c14 -13 25 -33 25 -45 0 -18 -6 -20 -65 -20 -59 0 -65 2
-65 20 0 25 42 70 65 70 9 0 27 -11 40 -25z"/>
<path d="M21001 6506 c-47 -26 -50 -44 -51 -314 l0 -254 34 -34 c45 -45 92
-47 138 -5 l33 29 5 183 5 184 63 31 c35 17 68 37 73 45 17 27 10 95 -12 123
-30 38 -86 34 -113 -9 l-20 -30 -32 33 c-35 35 -80 42 -123 18z"/>
<path d="M21488 6491 l-33 -29 0 -267 0 -267 33 -29 c46 -42 93 -40 138 5 l34
34 0 169 c0 163 1 170 23 190 12 11 39 26 60 33 21 6 45 23 54 36 18 27 20 93
3 123 -23 43 -101 39 -127 -7 l-16 -27 -32 32 c-44 44 -91 45 -137 4z"/>
<path d="M22080 6493 c-61 -32 -110 -94 -132 -166 -7 -23 -13 -87 -13 -142 0
-86 4 -108 26 -156 32 -68 87 -123 145 -145 90 -34 263 -2 294 55 19 36 12 78
-16 100 -32 25 -41 26 -104 5 -40 -13 -55 -14 -84 -4 -38 12 -66 43 -66 72 0
16 12 18 125 18 143 0 174 10 195 61 11 26 11 45 2 103 -15 86 -51 149 -111
191 -38 26 -52 30 -124 33 -74 3 -87 1 -137 -25z m155 -158 c14 -13 25 -33 25
-45 0 -18 -6 -20 -65 -20 -59 0 -65 2 -65 20 0 25 42 70 65 70 9 0 27 -11 40
-25z"/>
<path d="M22730 6513 c-69 -26 -114 -106 -130 -227 -19 -152 23 -314 94 -357
67 -41 150 -36 198 11 l28 28 0 -44 c0 -98 -56 -138 -152 -110 -44 13 -56 13
-84 1 -42 -17 -62 -71 -42 -112 23 -49 78 -68 198 -68 93 0 111 3 155 25 61
32 109 98 125 174 7 34 10 157 8 341 l-3 287 -33 29 c-46 41 -93 40 -137 -4
l-33 -33 -36 33 c-31 29 -42 33 -88 32 -29 0 -60 -3 -68 -6z m172 -190 c15
-13 18 -32 18 -114 0 -94 -1 -99 -25 -115 -31 -20 -60 -11 -75 26 -16 38 -10
181 9 203 17 22 49 22 73 0z"/>
<path d="M23371 6507 c-47 -28 -50 -45 -51 -310 0 -274 4 -294 60 -317 43 -18
97 -3 124 33 20 27 21 43 24 260 3 242 -2 289 -37 321 -26 23 -90 30 -120 13z"/>
<path d="M23843 6495 c-100 -50 -147 -146 -147 -300 0 -154 47 -250 147 -300
64 -32 170 -35 232 -6 58 26 122 103 143 170 22 75 22 209 -1 278 -22 63 -88
140 -142 164 -62 29 -168 26 -232 -6z m162 -185 c10 -19 15 -57 15 -115 0
-101 -17 -145 -55 -145 -42 0 -55 33 -55 145 0 112 13 145 55 145 17 0 29 -9
40 -30z"/>
<path d="M24438 6491 l-33 -29 0 -267 0 -267 33 -29 c46 -42 93 -40 138 5 l34
34 0 175 c0 162 1 176 21 201 14 17 29 26 43 24 20 -3 21 -8 26 -200 5 -180 7
-199 26 -225 27 -36 81 -51 124 -33 58 24 61 43 58 320 l-3 250 -32 32 c-27
27 -41 32 -91 36 -61 4 -122 -17 -151 -52 -18 -21 -28 -20 -36 4 -4 11 -19 27
-35 35 -45 23 -85 19 -122 -14z"/>
<path d="M25211 6499 c-66 -23 -88 -42 -96 -80 -8 -35 14 -74 51 -91 20 -9 35
-8 75 6 90 33 149 3 149 -76 l0 -37 -35 23 c-92 62 -211 31 -256 -68 -26 -58
-25 -157 2 -213 29 -59 70 -86 140 -91 49 -4 65 0 104 22 25 15 45 31 45 35 0
5 15 -6 34 -25 38 -38 77 -44 125 -19 48 24 53 52 49 287 l-3 215 -28 42 c-42
64 -108 91 -217 90 -57 0 -103 -7 -139 -20z m160 -369 c15 -8 19 -21 19 -60 0
-50 -15 -70 -54 -70 -25 0 -56 37 -56 68 0 57 44 87 91 62z"/>
<path d="M26325 6501 c-185 -84 -219 -433 -55 -573 77 -67 202 -80 299 -31 71
35 93 70 71 110 -9 15 -27 34 -42 42 -24 14 -32 14 -75 -2 -76 -27 -138 -4
-157 60 -7 21 -5 22 134 25 141 3 142 3 166 31 47 55 24 204 -44 279 -51 57
-101 78 -187 78 -46 0 -83 -7 -110 -19z m148 -160 c4 -4 11 -22 16 -39 l10
-32 -71 0 -70 0 6 28 c10 39 44 65 75 57 14 -4 29 -10 34 -14z"/>
<path d="M15352 6485 c-26 -21 -32 -34 -32 -65 0 -63 26 -84 109 -90 l71 -5
-90 -152 c-101 -171 -111 -208 -66 -256 33 -36 52 -39 226 -35 l152 3 24 28
c31 36 31 78 0 114 -21 25 -33 29 -95 33 l-71 5 90 155 c101 173 109 207 66
257 l-24 28 -165 3 -164 3 -31 -26z"/>
<path d="M7771 6147 c-149 -36 -176 -45 -184 -64 -7 -16 -6 -32 3 -53 15 -37
36 -38 182 -10 136 26 141 26 177 -15 29 -34 36 -54 31 -100 -3 -38 -26 -47
-176 -67 -156 -20 -174 -28 -174 -74 0 -12 8 -31 18 -42 17 -20 19 -20 177 -6
88 8 170 18 182 24 73 31 78 183 8 274 -26 34 -30 46 -19 50 23 9 35 52 23 83
-20 54 -22 54 -248 0z"/>
<path d="M6754 6076 c-3 -9 -4 -23 -1 -31 17 -43 -40 -270 -96 -380 -122 -243
-359 -438 -605 -496 -161 -39 -330 -17 -563 74 l-115 46 -133 -4 c-132 -4
-151 -7 -203 -27 -22 -8 -28 -17 -28 -41 0 -25 12 -42 63 -89 34 -33 85 -73
114 -89 29 -16 55 -38 58 -49 8 -26 27 -31 130 -36 118 -6 172 -18 247 -53 87
-39 144 -84 178 -138 41 -64 47 -119 21 -171 -30 -59 -76 -90 -162 -108 -96
-20 -151 -47 -192 -95 -154 -179 -140 -474 34 -724 39 -57 165 -176 225 -213
137 -86 276 -116 489 -109 174 6 231 19 362 83 111 55 197 118 280 208 170
181 284 411 330 666 21 117 24 476 4 620 -28 216 -82 441 -148 622 -44 120
-252 540 -270 546 -7 2 -16 -3 -19 -12z"/>
<path d="M2392 5988 c-81 -133 -162 -301 -209 -433 -256 -723 -241 -1317 46
-1750 58 -88 197 -234 277 -291 85 -60 212 -119 324 -149 124 -33 298 -35 413
-5 243 62 425 201 529 405 53 105 65 139 78 234 19 141 -11 273 -87 384 -36
52 -98 86 -180 99 -212 32 -265 172 -123 323 66 69 201 135 292 141 108 8 127
14 172 52 24 20 96 75 160 121 102 73 116 87 116 112 0 23 -4 29 -22 29 -13 0
-52 6 -88 14 -169 37 -177 37 -233 12 -71 -32 -238 -92 -317 -113 -99 -26
-300 -23 -405 6 -202 56 -381 186 -504 364 -81 118 -158 325 -168 455 -3 39
-9 72 -13 72 -4 0 -30 -37 -58 -82z"/>
<path d="M1176 5817 c-44 -47 -60 -115 -54 -233 6 -110 38 -197 72 -192 29 4
31 36 11 113 -35 127 -3 215 77 215 l39 0 -17 -32 c-26 -49 -31 -177 -10 -233
32 -82 100 -112 178 -77 63 28 83 72 83 182 -1 60 -6 94 -18 117 -16 31 -16
32 3 38 24 8 36 49 24 84 -11 31 -34 36 -226 47 l-128 7 -34 -36z m279 -107
c35 -13 59 -71 52 -128 -6 -53 -31 -81 -78 -88 -28 -5 -41 -1 -66 20 -40 33
-49 80 -27 135 25 64 62 83 119 61z"/>
<path d="M8026 5558 c-3 -13 -7 -32 -8 -43 -3 -19 -12 -20 -143 -22 -77 -2
-150 -5 -163 -8 -38 -9 -62 -61 -62 -135 0 -76 8 -93 41 -88 20 2 24 9 27 43
2 22 10 46 19 53 18 13 157 17 237 6 l46 -7 0 -42 c0 -83 61 -87 70 -4 l5 44
50 3 c63 4 75 15 75 68 0 57 -19 74 -80 74 l-49 0 -3 38 c-3 32 -7 37 -30 40
-22 3 -28 -2 -32 -20z"/>
<path d="M15934 5536 c-45 -45 -48 -108 -8 -155 71 -85 204 -36 204 75 0 39
-5 51 -34 80 -29 29 -41 34 -81 34 -40 0 -52 -5 -81 -34z"/>
<path d="M17449 5555 c-29 -16 -59 -70 -59 -108 0 -38 41 -91 82 -104 100 -33
188 66 143 161 -29 61 -105 84 -166 51z"/>
<path d="M21744 5551 c-84 -51 -63 -184 33 -210 90 -25 172 57 143 144 -25 76
-108 107 -176 66z"/>
<path d="M23973 5550 c-36 -21 -60 -82 -50 -122 18 -68 88 -107 154 -85 50 17
78 58 78 114 0 39 -5 49 -37 79 -45 40 -94 45 -145 14z"/>
<path d="M17074 5500 c-12 -4 -31 -21 -43 -36 -21 -26 -21 -34 -21 -396 0
-406 1 -414 60 -438 43 -18 97 -3 124 33 20 27 21 41 24 380 2 238 0 364 -8
390 -17 59 -80 90 -136 67z"/>
<path d="M13684 5489 c-17 -5 -39 -18 -50 -30 -18 -20 -19 -42 -22 -385 -2
-313 -1 -368 13 -394 40 -78 160 -78 200 0 11 21 15 62 15 160 l0 130 65 0
c76 0 111 14 131 51 23 45 17 78 -20 115 -32 32 -38 34 -105 34 l-71 0 0 60 0
60 60 0 c33 0 76 6 95 14 33 14 65 59 65 91 0 32 -32 77 -65 91 -39 16 -259
18 -311 3z"/>
<path d="M23541 5426 c-35 -19 -50 -54 -51 -113 0 -43 -3 -53 -21 -58 -27 -9
-53 -70 -45 -109 7 -34 33 -66 53 -66 10 0 13 -33 13 -163 0 -175 7 -217 42
-255 31 -33 61 -43 131 -43 67 -1 98 15 117 61 20 47 3 91 -43 113 l-37 19 0
131 0 132 33 15 c62 29 61 121 -2 158 -26 14 -29 23 -33 76 -4 51 -9 63 -36
87 -36 32 -81 37 -121 15z"/>
<path d="M14330 5251 c-97 -35 -126 -96 -71 -152 34 -34 46 -35 110 -12 81 28
141 -4 141 -77 l0 -39 -35 23 c-107 73 -247 15 -274 -113 -30 -143 48 -261
172 -261 53 0 79 10 119 47 26 25 26 25 33 4 13 -42 87 -63 139 -40 51 24 58
60 54 287 -4 242 -10 266 -93 317 -43 26 -57 30 -144 32 -75 3 -108 -1 -151
-16z m164 -377 c25 -24 21 -90 -6 -108 -30 -21 -44 -20 -68 4 -24 24 -26 77
-3 102 20 22 56 23 77 2z"/>
<path d="M14961 5256 c-47 -26 -50 -44 -51 -309 0 -269 4 -292 55 -315 44 -20
82 -14 117 17 l33 29 5 192 c5 175 7 193 24 206 29 21 55 17 61 -8 2 -13 6
-106 7 -206 l3 -184 33 -29 c44 -39 90 -39 134 0 l33 29 3 185 c3 169 5 186
24 206 11 13 29 21 41 19 21 -3 22 -8 27 -198 3 -130 9 -202 18 -217 35 -62
106 -71 158 -19 l34 34 0 236 c0 251 -5 281 -49 320 -33 30 -126 34 -178 7
-23 -11 -50 -32 -61 -45 l-19 -25 -11 24 c-17 38 -70 65 -124 65 -59 0 -87
-11 -132 -50 -25 -22 -36 -27 -36 -17 0 8 -14 27 -31 41 -34 29 -79 33 -118
12z"/>
<path d="M15948 5241 l-33 -29 0 -267 0 -267 33 -29 c22 -20 43 -29 67 -29 24
0 45 9 67 29 l33 29 0 267 0 267 -33 29 c-22 20 -43 29 -67 29 -24 0 -45 -9
-67 -29z"/>
<path d="M16420 5263 c-69 -26 -113 -103 -130 -226 -21 -148 23 -315 94 -358
67 -41 145 -37 195 10 l31 29 0 -44 c0 -97 -56 -138 -151 -111 -63 19 -103 8
-125 -35 -17 -33 -12 -72 13 -101 37 -40 197 -61 288 -36 57 15 113 56 140
103 40 69 47 139 43 439 l-3 279 -33 29 c-46 41 -93 40 -137 -4 l-33 -33 -36
33 c-31 29 -42 33 -88 32 -29 0 -60 -3 -68 -6z m172 -190 c15 -13 18 -32 18
-114 0 -94 -1 -99 -25 -115 -30 -20 -63 -10 -76 23 -15 41 -11 175 7 201 18
26 50 28 76 5z"/>
<path d="M17464 5260 c-52 -21 -54 -35 -54 -316 0 -248 1 -263 20 -287 26 -32
79 -44 121 -27 58 24 59 30 59 313 0 158 -4 266 -10 278 -22 39 -88 59 -136
39z"/>
<path d="M17932 5244 c-58 -29 -90 -65 -124 -140 -19 -41 -23 -66 -23 -159 0
-105 2 -114 33 -178 54 -110 128 -152 256 -145 88 4 166 39 180 81 13 36 -2
77 -35 96 -23 13 -33 13 -82 -3 -47 -15 -63 -16 -92 -6 -37 12 -65 43 -65 72
0 16 12 18 125 18 142 0 174 10 195 60 23 57 -8 189 -60 252 -67 81 -203 104
-308 52z m153 -159 c14 -13 25 -33 25 -45 0 -18 -6 -20 -65 -20 -62 0 -65 1
-65 24 0 25 41 66 67 66 8 0 25 -11 38 -25z"/>
<path d="M18921 5256 c-53 -19 -107 -71 -137 -133 -24 -48 -29 -73 -32 -154
-7 -165 40 -267 147 -321 97 -49 251 -32 306 34 32 37 32 72 0 103 -28 29 -45
31 -108 9 -38 -13 -53 -14 -82 -4 -37 12 -65 43 -65 72 0 16 12 18 130 18 129
0 130 0 162 29 29 26 31 33 30 85 -4 174 -99 277 -251 275 -37 0 -81 -6 -100
-13z m127 -163 c12 -10 24 -30 28 -45 l6 -28 -66 0 c-62 0 -66 1 -66 23 0 55
58 84 98 50z"/>
<path d="M19787 5259 c-45 -26 -47 -47 -47 -438 l0 -369 26 -31 c32 -39 80
-49 124 -26 46 24 60 67 60 187 0 83 2 99 13 86 26 -32 62 -48 112 -48 126 0
195 117 195 331 0 155 -43 264 -121 304 -15 8 -51 15 -79 15 -43 0 -55 -5 -86
-33 l-36 -33 -33 33 c-26 26 -41 33 -71 33 -22 0 -47 -5 -57 -11z m249 -190
c16 -18 19 -37 19 -125 0 -94 -2 -106 -22 -126 -19 -18 -27 -20 -50 -12 l-28
9 -3 125 c-2 109 0 126 15 137 25 19 47 16 69 -8z"/>
<path d="M20552 5251 c-29 -10 -64 -29 -77 -41 -34 -32 -34 -82 0 -115 28 -29
58 -31 108 -10 54 22 85 19 118 -14 21 -22 29 -39 29 -66 l0 -36 -27 20 c-90
64 -218 39 -264 -50 -56 -110 -21 -256 72 -304 55 -29 150 -16 196 27 l22 20
23 -26 c30 -36 96 -46 134 -22 46 31 54 69 54 255 0 94 -5 193 -11 222 -14 66
-63 122 -126 143 -63 22 -184 20 -251 -3z m160 -378 c27 -24 24 -87 -4 -107
-46 -33 -88 -6 -88 55 0 62 50 90 92 52z"/>
<path d="M21760 5257 c-14 -7 -33 -28 -43 -47 -16 -31 -17 -62 -15 -277 3
-227 4 -243 24 -270 42 -57 138 -53 169 8 20 37 22 503 3 544 -22 48 -87 68
-138 42z"/>
<path d="M22250 5257 c-19 -6 -56 -32 -82 -58 -58 -58 -88 -144 -88 -254 0
-199 105 -325 270 -325 160 0 261 90 185 165 -28 29 -45 31 -108 9 -38 -13
-53 -14 -82 -4 -37 12 -65 43 -65 72 0 16 12 18 125 18 146 0 177 10 195 64
14 43 -1 140 -31 202 -25 52 -76 97 -128 113 -47 14 -144 13 -191 -2z m135
-172 c14 -13 25 -33 25 -45 0 -18 -6 -20 -65 -20 -61 0 -65 1 -65 23 0 36 28
64 68 66 7 1 24 -10 37 -24z"/>
<path d="M22824 5260 c-52 -21 -54 -35 -54 -316 l0 -261 24 -26 c46 -49 121
-46 160 6 19 26 21 45 26 211 5 189 11 216 49 216 37 0 41 -19 41 -213 l0
-189 34 -34 c45 -45 92 -47 138 -5 l33 29 3 234 c2 172 0 244 -10 273 -18 53
-66 85 -129 85 -61 0 -96 -13 -136 -52 -30 -29 -31 -29 -38 -9 -15 49 -85 74
-141 51z"/>
<path d="M23993 5260 c-12 -5 -30 -21 -40 -37 -16 -24 -18 -53 -18 -279 0
-241 1 -254 21 -281 39 -52 114 -55 160 -6 l24 26 0 261 c0 232 -2 263 -18
282 -33 41 -80 53 -129 34z"/>
<path d="M21139 5245 c-32 -18 -52 -63 -43 -99 11 -44 49 -66 115 -66 33 0 59
-3 59 -7 0 -3 -39 -74 -87 -156 -93 -160 -102 -192 -69 -241 26 -40 53 -46
212 -46 166 0 195 9 213 63 25 73 -20 117 -117 117 -47 0 -63 3 -59 13 2 6 41
75 86 152 46 77 85 152 88 167 8 39 -14 86 -48 103 -39 21 -312 20 -350 0z"/>
<path d="M1264 5144 c-6 -24 21 -211 42 -291 5 -18 -5 -23 -97 -46 -57 -14
-104 -25 -106 -24 -1 1 -13 63 -28 137 -36 187 -45 214 -72 218 -17 3 -24 -3
-29 -22 -11 -46 62 -416 92 -463 8 -13 24 -23 35 -23 35 0 543 151 551 163 14
22 8 74 -10 90 -24 22 -35 22 -154 -8 -55 -14 -102 -25 -103 -23 -2 2 -13 55
-25 118 -32 169 -41 194 -67 198 -17 3 -24 -3 -29 -24z"/>
<path d="M7637 5072 c-20 -22 -22 -75 -4 -91 8 -6 98 -24 202 -41 175 -27 190
-28 207 -13 21 19 25 95 6 111 -10 7 -345 52 -389 52 -3 0 -13 -8 -22 -18z"/>
<path d="M8184 5022 c-34 -22 -45 -99 -18 -126 50 -50 111 45 74 115 -11 19
-36 25 -56 11z"/>
<path d="M1195 2755 c-27 -8 -53 -14 -56 -15 -17 -1 -102 -87 -118 -119 -10
-20 -91 -285 -181 -590 -175 -599 -173 -589 -125 -662 57 -88 198 -93 267 -11
16 20 33 60 44 107 l18 75 217 0 218 0 11 -42 c32 -123 51 -157 104 -182 108
-51 232 15 243 131 4 41 -19 131 -151 583 -86 294 -164 553 -175 575 -29 62
-67 102 -124 129 -67 32 -129 38 -192 21z m205 -892 c0 -10 -35 -13 -141 -13
-129 0 -140 1 -136 18 3 9 33 132 67 272 34 140 64 262 67 270 5 13 141 -511
143 -547z"/>
<path d="M5452 2750 c-102 -27 -164 -64 -232 -136 -82 -88 -104 -148 -104
-284 -1 -99 1 -109 31 -171 35 -71 99 -138 174 -182 25 -15 98 -47 161 -71
218 -82 258 -112 258 -193 0 -126 -176 -159 -366 -69 -112 53 -178 47 -237
-23 -38 -46 -44 -101 -15 -159 29 -60 77 -92 198 -134 91 -31 101 -32 250 -33
137 0 163 3 223 23 158 55 252 154 292 309 44 168 -10 337 -138 432 -66 49
-120 76 -277 136 -143 55 -200 99 -200 153 0 45 18 78 54 97 50 27 191 17 276
-19 106 -46 195 -23 234 58 73 154 -89 273 -384 282 -102 3 -138 1 -198 -16z"/>
<path d="M6693 2760 c-75 -16 -142 -62 -178 -124 -13 -23 -96 -288 -185 -591
-135 -459 -161 -558 -157 -598 7 -85 74 -147 159 -147 100 0 153 50 184 173
l16 67 218 0 218 0 17 -70 c31 -127 83 -174 186 -168 38 3 66 11 88 28 36 25
70 89 71 131 0 31 -312 1103 -336 1154 -48 101 -187 168 -301 145z m127 -620
c33 -135 62 -255 65 -267 l5 -23 -140 0 c-77 0 -140 3 -140 8 0 4 30 132 67
285 46 188 70 273 75 260 4 -10 35 -128 68 -263z"/>
<path d="M7890 2763 c-179 -30 -348 -158 -429 -325 -62 -129 -84 -235 -85
-408 0 -117 4 -162 22 -235 65 -260 231 -437 460 -491 104 -25 274 -15 377 23
140 50 248 138 273 222 8 24 12 119 12 253 0 207 -1 216 -22 248 -49 71 -61
75 -252 78 -198 4 -225 -2 -272 -64 -37 -48 -41 -127 -8 -171 40 -54 80 -73
155 -73 l69 0 0 -79 c0 -76 -1 -81 -27 -99 -42 -29 -90 -42 -153 -42 -183 0
-293 187 -277 470 7 121 23 187 63 260 45 82 122 130 210 130 60 0 105 -22
164 -81 63 -63 112 -78 173 -55 102 39 136 137 79 227 -62 96 -171 173 -289
204 -53 14 -183 18 -243 8z"/>
<path d="M3685 2584 c-105 -27 -167 -70 -205 -144 -20 -39 -40 -133 -40 -187
0 -30 -3 -33 -29 -33 -59 0 -110 -74 -96 -140 10 -45 51 -88 91 -96 l34 -6 0
-272 c0 -149 5 -287 10 -307 5 -19 24 -48 41 -65 27 -25 38 -29 89 -29 56 0
62 3 97 38 l38 37 3 299 3 298 46 6 c155 17 145 237 -12 237 -34 0 -35 1 -35
41 0 67 24 99 75 99 66 0 126 72 108 128 -12 41 -29 65 -53 77 -29 15 -133 27
-165 19z"/>
<path d="M2535 2220 c-76 -37 -75 -31 -75 -452 0 -352 1 -375 20 -405 51 -84
179 -84 230 0 18 29 20 52 20 283 l0 252 33 29 c34 30 61 42 135 62 54 15 78
39 92 92 23 86 -39 168 -117 156 -41 -7 -95 -46 -119 -86 l-17 -29 -19 38
c-14 27 -33 45 -62 59 -53 26 -71 26 -121 1z"/>
<path d="M2055 1616 c-42 -18 -93 -79 -101 -121 -16 -86 37 -170 124 -196 57
-17 114 1 163 50 62 62 65 151 6 218 -52 60 -125 78 -192 49z"/>
<path d="M3024 1611 c-63 -29 -89 -72 -89 -151 0 -71 18 -106 72 -141 122 -80
291 41 253 181 -29 106 -135 157 -236 111z"/>
<path d="M3984 1612 c-56 -26 -87 -73 -92 -137 -8 -103 61 -180 162 -179 64 0
109 23 142 74 93 140 -59 313 -212 242z"/>
</g>
</svg>
