<svg width="202" height="62" viewBox="0 0 202 62" fill="none" xmlns="http://www.w3.org/2000/svg">
<g clip-path="url(#clip0_1812_107)">
<path d="M0 38.5165V1.70331H7.96703V31.4286H24.1758V38.5165H0Z" fill="#FBBA00"/>
<path d="M35.6594 1.70331H27.6924V38.4615H35.6594V1.70331Z" fill="#FBBA00"/>
<path d="M59.7252 39.011C55.1647 39.011 52.4175 36.1539 51.4285 33.7363L38.3516 1.70331H47.1977L47.3625 2.19781C49.7801 8.02199 53.7911 18.022 56.7032 25.3846L57.3076 26.8681L66.5933 1.75825H75.1098L60.2197 39.011H59.7252Z" fill="#FBBA00"/>
<path d="M85.8244 1.70331H77.8574V38.4615H85.8244V1.70331Z" fill="#FBBA00"/>
<path d="M109.121 39.066C97.0332 39.066 88.9014 31.4835 88.9014 20.1649C88.9014 8.24178 96.4288 1.15387 109.011 1.15387C112.473 1.15387 116.154 1.9231 120.22 3.57145L120.934 3.84618L118.132 10.6594L117.363 10.3297C114.066 8.95607 111.154 8.29673 108.407 8.29673C101.704 8.29673 97.5277 12.5824 97.5277 19.4506C97.5277 27.033 101.704 31.3736 108.901 31.3736C110.55 31.3736 112.088 31.2088 113.352 30.8791L113.846 30.7693L113.791 30.2747C113.791 30.055 113.791 29.7802 113.791 29.5605V25.055C113.791 23.5715 114.341 22.1978 115.385 21.2088C116.429 20.1649 117.802 19.6154 119.231 19.6154H121.868V36.044L121.429 36.2638C117.473 38.0769 113.297 39.066 109.121 39.066Z" fill="#FBBA00"/>
<path d="M153.901 38.8462C150.605 38.8462 147.857 37.1429 145.989 34.011L133.517 12.4725V38.5165H125.55V1.75825H136.374L150.495 25.2747V1.70331H158.462V37.8022L157.967 37.967C156.594 38.5714 155.165 38.8462 153.901 38.8462Z" fill="#FBBA00"/>
<path d="M188.076 28.3517C187.417 28.8462 186.977 29.6154 187.087 30.4396L188.296 39.011C192.362 37.6374 195.714 35.1099 198.076 31.9231L190.384 28.1319C189.615 27.6923 188.735 27.8572 188.076 28.3517Z" fill="#FBBA00"/>
<path d="M191.868 23.1868C191.593 24.011 191.703 24.8901 192.308 25.4945L198.242 31.5934C200.604 28.2967 201.978 24.2857 201.978 20.1099L193.626 21.5385C192.802 21.7583 192.143 22.4176 191.868 23.1868Z" fill="#FBBA00"/>
<path d="M181.978 30.2198C181.208 30.2198 180.439 30.6044 180.054 31.2637L175.934 39.011C179.725 40.2198 183.901 40.3297 188.021 39.011L183.956 31.3187C183.571 30.6044 182.802 30.2198 181.978 30.2198Z" fill="#FBBA00"/>
<path d="M191.923 16.7583C192.198 17.5824 192.802 18.2418 193.626 18.4066L201.978 19.8901C201.978 17.9121 201.648 15.8791 200.989 13.8462C200.329 11.8682 199.395 10 198.241 8.40662L192.362 14.5055C191.758 15.055 191.648 15.989 191.923 16.7583Z" fill="#FBBA00"/>
<path d="M176.044 28.1868C175.439 27.7472 174.615 27.5824 173.901 27.9121L165.879 31.8681C168.351 35.2198 171.758 37.6923 175.659 38.956L176.923 30.1648C177.033 29.3956 176.648 28.6813 176.044 28.1868Z" fill="#FBBA00"/>
<path d="M182.032 9.67035C182.857 9.67035 183.626 9.28574 184.011 8.51651L188.021 0.934089C184.23 -0.274702 180.054 -0.384592 175.934 0.934089L179.945 8.57145C180.384 9.28574 181.208 9.67035 182.032 9.67035Z" fill="#FBBA00"/>
<path d="M188.131 11.5935C188.845 12.088 189.724 12.2528 190.494 11.8682L198.131 8.13192C195.604 4.78027 192.197 2.30774 188.351 1.04401L187.142 9.4506C186.977 10.2748 187.417 11.099 188.131 11.5935Z" fill="#FBBA00"/>
<path d="M165.714 31.5934L171.923 25.2198C172.472 24.6704 172.582 23.8462 172.362 23.1319C172.142 22.4176 171.538 21.8132 170.769 21.6484L161.978 20.1099C161.978 22.0879 162.307 24.1209 162.967 26.1539C163.626 28.1868 164.56 30 165.714 31.5934Z" fill="#FBBA00"/>
<path d="M172.362 16.8682C172.582 16.1539 172.472 15.2748 171.922 14.7253L165.768 8.35168C163.406 11.6484 162.032 15.6594 162.032 19.8352L170.768 18.2967C171.538 18.1868 172.087 17.5825 172.362 16.8682Z" fill="#FBBA00"/>
<path d="M175.989 11.7033C176.648 11.2088 177.033 10.4396 176.923 9.67038L175.714 1.04401C171.648 2.41763 168.296 4.94511 165.934 8.13192L173.791 11.9781C174.505 12.3077 175.384 12.1979 175.989 11.7033Z" fill="#FBBA00"/>
</g>
<path d="M159.94 55.578C160.012 55.704 159.976 55.812 159.868 55.902C158.788 56.766 157.51 57.198 156.016 57.198C154.27 57.198 152.776 56.586 151.534 55.38C150.292 54.174 149.68 52.68 149.68 50.88C149.68 49.17 150.292 47.694 151.552 46.452C152.794 45.21 154.288 44.598 156.016 44.598C157.312 44.598 158.59 45.012 159.868 45.876C159.976 45.948 159.994 46.056 159.922 46.182L159.004 47.586C158.914 47.694 158.806 47.712 158.698 47.64C157.726 46.992 156.844 46.686 156.016 46.686C154.9 46.686 153.928 47.1 153.136 47.946C152.326 48.756 151.93 49.728 151.93 50.88C151.93 52.032 152.326 53.04 153.118 53.868C153.928 54.678 154.9 55.092 156.016 55.092C156.664 55.092 157.24 54.966 157.744 54.75C157.78 54.714 157.87 54.66 158.032 54.57C158.194 54.462 158.428 54.336 158.716 54.174C158.824 54.084 158.932 54.102 159.004 54.246L159.94 55.578ZM171.617 48.666C171.617 49.602 171.329 50.412 170.771 51.114C170.213 51.816 169.493 52.266 168.611 52.464L171.221 56.712C171.347 56.91 171.311 57 171.113 57H169.061C168.917 57 168.791 56.928 168.701 56.784L166.145 52.572H163.985V56.784C163.985 56.928 163.913 57 163.769 57H162.023C161.879 57 161.807 56.928 161.807 56.784V44.958C161.807 44.814 161.879 44.742 162.023 44.742H167.747C168.809 44.742 169.709 45.138 170.465 45.894C171.221 46.686 171.617 47.604 171.617 48.666ZM169.367 48.666C169.367 48.09 169.133 47.586 168.647 47.19C168.233 46.848 167.783 46.668 167.279 46.668H163.985V50.646H167.207C167.747 50.646 168.233 50.466 168.683 50.106C169.151 49.728 169.367 49.242 169.367 48.666ZM182.782 56.784C182.782 56.928 182.71 57 182.566 57H173.854C173.71 57 173.638 56.928 173.638 56.784V44.958C173.638 44.814 173.71 44.742 173.854 44.742H182.566C182.71 44.742 182.782 44.814 182.782 44.958V46.47C182.782 46.614 182.71 46.686 182.566 46.686H175.816V49.872H181.612C181.756 49.872 181.828 49.944 181.828 50.088V51.582C181.828 51.744 181.756 51.816 181.612 51.816H175.816V55.056H182.566C182.71 55.056 182.782 55.128 182.782 55.272V56.784ZM201.353 45.066L197.555 56.784C197.483 56.964 197.393 57.054 197.267 57.054H195.251C195.125 57.054 195.035 56.964 194.999 56.784L192.443 48.9L189.887 56.784C189.815 56.964 189.725 57.054 189.617 57.054H187.709C187.601 57.054 187.511 56.964 187.439 56.784L183.641 45.066C183.605 44.994 183.623 44.922 183.677 44.85C183.713 44.778 183.785 44.742 183.875 44.742H185.675C185.783 44.742 185.873 44.832 185.945 45.012L188.645 53.958L191.363 45.012C191.399 44.832 191.489 44.742 191.615 44.742H193.343C193.451 44.742 193.523 44.832 193.595 45.012L196.313 53.958L199.013 45.012C199.049 44.832 199.139 44.742 199.283 44.742H201.119C201.191 44.742 201.263 44.778 201.317 44.85C201.353 44.922 201.371 44.994 201.353 45.066Z" fill="#001489"/>
<defs>
<clipPath id="clip0_1812_107">
<rect width="201.978" height="40" fill="white"/>
</clipPath>
</defs>
</svg>
