<svg width="119" height="36" viewBox="0 0 119 36" fill="none" xmlns="http://www.w3.org/2000/svg">
<g clip-path="url(#clip0_1336_1030)">
<path d="M0.861328 22.3644V0.989014H5.48735V18.2489H14.8989V22.3644H0.861328Z" fill="#FBBA00"/>
<path d="M21.5664 0.989014H16.9404V22.3325H21.5664V0.989014Z" fill="#FBBA00"/>
<path d="M35.5404 22.6515C32.8924 22.6515 31.2972 20.9926 30.7229 19.5888L23.1299 0.989014H28.2664L28.3621 1.27615C29.7658 4.65793 32.0948 10.4644 33.7857 14.7395L34.1366 15.6009L39.5283 1.02092H44.4734L35.8275 22.6515H35.5404Z" fill="#FBBA00"/>
<path d="M50.6944 0.989014H46.0684V22.3325H50.6944V0.989014Z" fill="#FBBA00"/>
<path d="M64.222 22.6835C57.2032 22.6835 52.4814 18.2808 52.4814 11.7086C52.4814 4.78555 56.8522 0.669983 64.1582 0.669983C66.1681 0.669983 68.3056 1.11663 70.6665 2.07374L71.0812 2.23326L69.4541 6.1893L69.0075 5.99788C67.0933 5.20029 65.4024 4.81745 63.8072 4.81745C59.915 4.81745 57.4903 7.30593 57.4903 11.2939C57.4903 15.6966 59.915 18.217 64.0943 18.217C65.0515 18.217 65.9448 18.1212 66.6785 17.9298L66.9657 17.866L66.9338 17.5789C66.9338 17.4513 66.9338 17.2917 66.9338 17.1641V14.548C66.9338 13.6866 67.2528 12.8891 67.859 12.3148C68.4651 11.7086 69.2627 11.3896 70.0922 11.3896H71.6236V20.9288L71.3684 21.0564C69.0713 22.1092 66.6466 22.6835 64.222 22.6835Z" fill="#FBBA00"/>
<path d="M90.223 22.5558C88.3088 22.5558 86.7136 21.5668 85.6289 19.7483L78.3868 7.24212V22.3644H73.7607V1.02092H80.0457L88.245 14.6756V0.989014H92.871V21.9497L92.5838 22.0454C91.7863 22.3963 90.9568 22.5558 90.223 22.5558Z" fill="#FBBA00"/>
<path d="M110.067 16.4623C109.685 16.7494 109.429 17.1961 109.493 17.6746L110.195 22.6516C112.556 21.854 114.502 20.3864 115.874 18.536L111.407 16.3347C110.961 16.0794 110.45 16.1752 110.067 16.4623Z" fill="#FBBA00"/>
<path d="M112.268 13.4634C112.109 13.9419 112.173 14.4524 112.524 14.8033L115.969 18.3446C117.341 16.4304 118.139 14.1014 118.139 11.6768L113.289 12.5063C112.811 12.6339 112.428 13.0167 112.268 13.4634Z" fill="#FBBA00"/>
<path d="M106.526 17.547C106.079 17.547 105.633 17.7703 105.409 18.1532L103.017 22.6516C105.218 23.3534 107.643 23.4173 110.035 22.6516L107.675 18.1851C107.451 17.7703 107.005 17.547 106.526 17.547Z" fill="#FBBA00"/>
<path d="M112.301 9.73063C112.46 10.2092 112.811 10.592 113.29 10.6877L118.139 11.5491C118.139 10.4006 117.947 9.22017 117.565 8.03974C117.182 6.89121 116.639 5.80649 115.969 4.88129L112.556 8.42258C112.205 8.74162 112.141 9.28398 112.301 9.73063Z" fill="#FBBA00"/>
<path d="M103.08 16.3665C102.729 16.1113 102.25 16.0156 101.836 16.207L97.1777 18.5041C98.6134 20.4502 100.591 21.8859 102.857 22.6196L103.59 17.5151C103.654 17.0684 103.431 16.6537 103.08 16.3665Z" fill="#FBBA00"/>
<path d="M106.558 5.61503C107.036 5.61503 107.483 5.3917 107.706 4.94505L110.035 0.542357C107.834 -0.159522 105.409 -0.223329 103.017 0.542357L105.346 4.97695C105.601 5.3917 106.079 5.61503 106.558 5.61503Z" fill="#FBBA00"/>
<path d="M110.099 6.73169C110.514 7.01882 111.024 7.11453 111.471 6.89121L115.906 4.72176C114.438 2.77564 112.46 1.33998 110.227 0.606201L109.525 5.48745C109.429 5.966 109.684 6.44456 110.099 6.73169Z" fill="#FBBA00"/>
<path d="M97.0825 18.3446L100.688 14.6438C101.007 14.3248 101.07 13.8462 100.943 13.4315C100.815 13.0167 100.464 12.6658 100.018 12.5701L94.9131 11.6768C94.9131 12.8253 95.1045 14.0057 95.4874 15.1862C95.8702 16.3666 96.4126 17.4194 97.0825 18.3446Z" fill="#FBBA00"/>
<path d="M100.943 9.79442C101.071 9.37967 101.007 8.86922 100.688 8.55018L97.1148 4.84937C95.7429 6.76358 94.9453 9.09254 94.9453 11.5172L100.018 10.6239C100.465 10.5601 100.784 10.2092 100.943 9.79442Z" fill="#FBBA00"/>
<path d="M103.048 6.7955C103.431 6.50836 103.654 6.06171 103.591 5.61506L102.889 0.606201C100.528 1.40379 98.5818 2.87136 97.21 4.72176L101.772 6.95501C102.187 7.14643 102.697 7.08263 103.048 6.7955Z" fill="#FBBA00"/>
</g>
<path d="M93.5037 32.1743C93.5455 32.2475 93.5246 32.3102 93.4619 32.3625C92.8348 32.8641 92.0927 33.115 91.2253 33.115C90.2114 33.115 89.344 32.7596 88.6228 32.0594C87.9016 31.3591 87.5463 30.4916 87.5463 29.4465C87.5463 28.4535 87.9016 27.5965 88.6333 26.8754C89.3544 26.1542 90.2219 25.7988 91.2253 25.7988C91.9778 25.7988 92.7198 26.0392 93.4619 26.5409C93.5246 26.5827 93.5351 26.6454 93.4933 26.7186L92.9602 27.5338C92.908 27.5965 92.8453 27.607 92.7825 27.5652C92.2182 27.1889 91.706 27.0112 91.2253 27.0112C90.5773 27.0112 90.0129 27.2516 89.553 27.7428C89.0827 28.2132 88.8527 28.7775 88.8527 29.4465C88.8527 30.1154 89.0827 30.7006 89.5425 31.1814C90.0129 31.6517 90.5773 31.8921 91.2253 31.8921C91.6015 31.8921 91.936 31.819 92.2286 31.6935C92.2495 31.6726 92.3018 31.6413 92.3958 31.589C92.4899 31.5263 92.6258 31.4532 92.793 31.3591C92.8557 31.3068 92.9184 31.3173 92.9602 31.4009L93.5037 32.1743ZM100.284 28.1609C100.284 28.7044 100.117 29.1747 99.7931 29.5823C99.4691 29.9899 99.0511 30.2512 98.5389 30.3662L100.054 32.8328C100.128 32.9477 100.107 33 99.9917 33H98.8002C98.7166 33 98.6434 32.9582 98.5912 32.8746L97.1071 30.4289H95.8529V32.8746C95.8529 32.9582 95.8111 33 95.7274 33H94.7136C94.63 33 94.5882 32.9582 94.5882 32.8746V26.0079C94.5882 25.9243 94.63 25.8825 94.7136 25.8825H98.0373C98.6539 25.8825 99.1765 26.1124 99.6154 26.5514C100.054 27.0112 100.284 27.5443 100.284 28.1609ZM98.9779 28.1609C98.9779 27.8265 98.842 27.5338 98.5598 27.3039C98.3194 27.1053 98.0582 27.0008 97.7655 27.0008H95.8529V29.3106H97.7237C98.0373 29.3106 98.3194 29.2061 98.5807 28.997C98.8525 28.7775 98.9779 28.4954 98.9779 28.1609ZM106.767 32.8746C106.767 32.9582 106.725 33 106.642 33H101.583C101.499 33 101.458 32.9582 101.458 32.8746V26.0079C101.458 25.9243 101.499 25.8825 101.583 25.8825H106.642C106.725 25.8825 106.767 25.9243 106.767 26.0079V26.8858C106.767 26.9694 106.725 27.0112 106.642 27.0112H102.722V28.8612H106.088C106.171 28.8612 106.213 28.903 106.213 28.9866V29.8541C106.213 29.9481 106.171 29.9899 106.088 29.9899H102.722V31.8712H106.642C106.725 31.8712 106.767 31.913 106.767 31.9966V32.8746ZM117.55 26.0706L115.345 32.8746C115.303 32.9791 115.251 33.0314 115.178 33.0314H114.007C113.934 33.0314 113.882 32.9791 113.861 32.8746L112.377 28.2968L110.893 32.8746C110.851 32.9791 110.799 33.0314 110.736 33.0314H109.628C109.565 33.0314 109.513 32.9791 109.471 32.8746L107.266 26.0706C107.245 26.0288 107.255 25.987 107.287 25.9452C107.308 25.9034 107.35 25.8825 107.402 25.8825H108.447C108.51 25.8825 108.562 25.9347 108.604 26.0392L110.171 31.2337L111.75 26.0392C111.771 25.9347 111.823 25.8825 111.896 25.8825H112.899C112.962 25.8825 113.004 25.9347 113.046 26.0392L114.624 31.2337L116.192 26.0392C116.213 25.9347 116.265 25.8825 116.348 25.8825H117.414C117.456 25.8825 117.498 25.9034 117.529 25.9452C117.55 25.987 117.561 26.0288 117.55 26.0706Z" fill="white"/>
<defs>
<clipPath id="clip0_1336_1030">
<rect width="117.278" height="23.2258" fill="white" transform="translate(0.861328)"/>
</clipPath>
</defs>
</svg>
