<svg width="50" height="50" viewBox="0 0 50 50" fill="none" xmlns="http://www.w3.org/2000/svg">
<path d="M35 0H15C12.244 0 10 2.24404 10 5V45C10 47.758 12.244 50 15 50H35C37.758 50 40 47.758 40 45V5C40 2.24404 37.758 0 35 0ZM38 45C38 46.654 36.654 48 35 48H15C13.346 48 12 46.654 12 45V5C12 3.346 13.346 2 15 2H35C36.654 2 38 3.346 38 5V45Z" fill="#001489"/>
<path d="M27 4H23C22.4479 4 22 4.44805 22 5C22 5.55195 22.448 6 23 6H27C27.552 6 28 5.55195 28 5C28 4.44805 27.552 4 27 4Z" fill="#001489"/>
<path d="M25 44C24.448 44 24 44.448 24 45C24 45.552 24.448 46 25 46C25.552 46 26 45.552 26 45C26 44.448 25.552 44 25 44Z" fill="#001489"/>
<path d="M39 8H11C10.4479 8 10 8.44805 10 9C10 9.55205 10.4479 10 11 10H39C39.552 10 40 9.55195 40 9C40 8.44805 39.552 8 39 8Z" fill="#001489"/>
<path d="M39 40H11C10.4479 40 10 40.448 10 41C10 41.552 10.4479 42 11 42H39C39.552 42 40 41.552 40 41C40 40.448 39.552 40 39 40Z" fill="#001489"/>
</svg>
