<svg width="45" height="46" viewBox="0 0 45 46" fill="none" xmlns="http://www.w3.org/2000/svg">
<path fill-rule="evenodd" clip-rule="evenodd" d="M32.3652 18.888V13.9175H12.5966V18.888C14.039 19.1477 15.1347 20.4107 15.1347 21.9277C15.1347 23.6324 13.7509 25.0163 12.0468 25.0163C10.3418 25.0163 8.95798 23.6324 8.95798 21.9277C8.95798 20.4106 10.0537 19.1476 11.497 18.888V13.9175H7.5195L1.70798 44.4185H43.2529L37.4424 13.9175H33.4746V18.8898C34.9121 19.1534 36.0029 20.4141 36.0029 21.9277C36.0029 23.6324 34.6191 25.0163 32.915 25.0163C31.2099 25.0163 29.8261 23.6324 29.8261 21.9277C29.8261 20.4106 30.9218 19.1476 32.3652 18.888ZM33.4746 12.8177V11.6538C33.4746 5.50407 28.5439 0.5 22.4863 0.5C16.4277 0.5 11.497 5.50407 11.497 11.6538V12.8177H7.07028C6.80368 12.8177 6.57516 13.0102 6.52927 13.2668L0.507781 44.8676C0.480438 45.0234 0.526336 45.1884 0.626922 45.3167C0.727508 45.445 0.883758 45.5183 1.0488 45.5183H43.9218C44.2246 45.5183 44.4726 45.2709 44.4814 44.9684C44.4814 44.9226 44.4726 44.8676 44.4629 44.8218L38.4511 13.2668C38.4052 13.001 38.1758 12.8177 37.9101 12.8177H33.4746ZM12.5966 12.8177H32.3652V11.6538C32.3652 6.10896 27.9297 1.59979 22.4765 1.59979C17.0234 1.59979 12.5966 6.10896 12.5966 11.6538V12.8177ZM12.0468 19.9389C10.9472 19.9389 10.0576 20.8371 10.0576 21.9277C10.0576 23.0275 10.9472 23.9165 12.0468 23.9165C13.1465 23.9165 14.0351 23.0275 14.0351 21.9277C14.0351 20.8279 13.1465 19.9389 12.0468 19.9389ZM30.9258 21.9277C30.9258 20.8371 31.8154 19.9389 32.915 19.9389C34.0146 19.9389 34.9033 20.8279 34.9033 21.9277C34.9033 23.0275 34.0146 23.9165 32.915 23.9165C31.8154 23.9165 30.9258 23.0275 30.9258 21.9277Z" fill="black"/>
</svg>
