<svg width="45" height="45" viewBox="0 0 60 60" fill="none" xmlns="http://www.w3.org/2000/svg">
<path d="M30.0004 57.8882C45.4025 57.8882 57.8884 45.4023 57.8884 30.0001C57.8884 14.598 45.4025 2.11207 30.0004 2.11207C14.5982 2.11207 2.1123 14.598 2.1123 30.0001C2.1123 45.4023 14.5982 57.8882 30.0004 57.8882Z" fill="#FBB900" stroke="#FBB900" stroke-width="2.67511"/>
<g clip-path="url(#clip0_1353_1588)">
<path d="M40.4399 39.0987L35.9542 34.6306C36.5092 33.9397 36.9716 33.2027 37.3416 32.3736C37.804 31.2681 38.0353 30.0704 38.0353 28.8728C38.0353 27.6752 37.804 26.4775 37.3416 25.372C36.8791 24.3126 36.2317 23.3453 35.3993 22.5161C34.5669 21.687 33.5958 21.0421 32.5322 20.5815C31.4224 20.1209 30.2199 19.8906 29.0176 19.8906C27.8152 19.8906 26.6129 20.1209 25.5031 20.5815C24.4394 21.0421 23.4683 21.687 22.6359 22.5161C21.8035 23.3453 21.1561 24.3126 20.6936 25.372C20.2312 26.4775 20 27.6752 20 28.8728C20 30.0704 20.2312 31.2681 20.6936 32.3736C21.1561 33.433 21.8035 34.4003 22.6359 35.2295C23.4683 36.0586 24.4394 36.7035 25.5031 37.1641C26.6129 37.6247 27.8152 37.855 29.0176 37.855C30.2199 37.855 31.4224 37.6247 32.5322 37.1641C33.3646 36.7956 34.1046 36.335 34.7982 35.7822L39.2838 40.2503C39.4226 40.3885 39.6538 40.4806 39.8387 40.4806C40.0237 40.4806 40.2549 40.3885 40.3937 40.2503C40.7636 39.9279 40.7637 39.4212 40.4399 39.0987ZM28.9901 36.0045C25.0345 36.0045 21.798 32.7817 21.798 28.8428C21.798 24.9038 25.0345 21.681 28.9901 21.681C32.9458 21.681 36.1823 24.9038 36.1823 28.8428C36.1823 32.7817 32.9458 36.0045 28.9901 36.0045Z" fill="#001489"/>
</g>
<defs>
<clipPath id="clip0_1353_1588">
<rect width="21" height="22" fill="white" transform="translate(20 19)"/>
</clipPath>
</defs>
</svg>
