<svg width="32" height="32" viewBox="0 0 32 32" fill="none" xmlns="http://www.w3.org/2000/svg">
<g clip-path="url(#clip0_1865_2114)">
<path d="M28.1371 0H3.86286C2.83836 0 1.85583 0.406978 1.1314 1.1314C0.406978 1.85583 0 2.83836 0 3.86286L0 28.1371C0 29.1616 0.406978 30.1442 1.1314 30.8686C1.85583 31.593 2.83836 32 3.86286 32H28.1371C29.1616 32 30.1442 31.593 30.8686 30.8686C31.593 30.1442 32 29.1616 32 28.1371V3.86286C32 2.83836 31.593 1.85583 30.8686 1.1314C30.1442 0.406978 29.1616 0 28.1371 0ZM26.9029 21.5086C26.7721 21.9914 26.5179 22.4318 26.1652 22.7865C25.8125 23.1412 25.3735 23.398 24.8914 23.5314C23.1086 24 16 24 16 24C16 24 8.89143 24 7.10857 23.52C6.6265 23.3865 6.1875 23.1298 5.83481 22.7751C5.48211 22.4204 5.22788 21.98 5.09714 21.4971C4.77453 19.6828 4.6177 17.8428 4.62857 16C4.617 14.1534 4.77384 12.3096 5.09714 10.4914C5.22788 10.0086 5.48211 9.56816 5.83481 9.21346C6.1875 8.85876 6.6265 8.60204 7.10857 8.46857C8.89143 8 16 8 16 8C16 8 23.1086 8 24.8914 8.48C25.3735 8.61347 25.8125 8.87019 26.1652 9.22489C26.5179 9.57959 26.7721 10.02 26.9029 10.5029C27.2446 12.3155 27.4206 14.1555 27.4286 16C27.4213 17.8484 27.2453 19.6922 26.9029 21.5086Z" fill="#001489"/>
<path d="M13.6689 19.3829L19.6232 16L13.6689 12.6172V19.3829Z" fill="#001489"/>
</g>
<defs>
<clipPath id="clip0_1865_2114">
<rect width="32" height="32" rx="16" fill="white"/>
</clipPath>
</defs>
</svg>
